<?xml version="1.0" encoding="UTF-8"?>
<!DOCTYPE svg PUBLIC "-//W3C//DTD SVG 1.1//EN" "http://www.w3.org/Graphics/SVG/1.1/DTD/svg11.dtd">
<svg xmlns="http://www.w3.org/2000/svg" version="1.1" width="104px" height="199px" style="shape-rendering:geometricPrecision; text-rendering:geometricPrecision; image-rendering:optimizeQuality; fill-rule:evenodd; clip-rule:evenodd" xmlns:xlink="http://www.w3.org/1999/xlink">
<g><path style="opacity:1" fill="#252525" d="M 63.5,0.5 C 63.5,0.166667 63.5,-0.166667 63.5,-0.5C 71.5,-0.5 79.5,-0.5 87.5,-0.5C 88.5,3.5 89.5,7.5 90.5,11.5C 84.8653,8.90659 78.8653,7.40659 72.5,7C 73.6001,5.97697 74.9334,5.47697 76.5,5.5C 80.2157,5.9826 83.8823,6.64927 87.5,7.5C 88.6956,7.15431 88.6956,6.65431 87.5,6C 81.2863,4.32669 74.953,3.16002 68.5,2.5C 69.7287,1.71893 71.062,1.21893 72.5,1C 69.5184,0.50204 66.5184,0.335374 63.5,0.5 Z"/></g>
<g><path style="opacity:1" fill="#1b1b1b" d="M 17.5,0.5 C 17.5,0.166667 17.5,-0.166667 17.5,-0.5C 18.8333,-0.5 20.1667,-0.5 21.5,-0.5C 29.9839,0.493025 38.6506,0.826358 47.5,0.5C 46.7375,1.26791 45.7375,1.76791 44.5,2C 37.2529,2.81225 30.0862,2.64559 23,1.5C 22.3333,2.5 22.3333,3.5 23,4.5C 29.0844,3.35797 35.2511,3.19131 41.5,4C 46.4649,4.81073 51.2982,5.9774 56,7.5C 56.4828,6.55198 56.6495,5.55198 56.5,4.5C 57.8734,4.34332 59.2068,4.50999 60.5,5C 59.6919,5.30762 59.0253,5.80762 58.5,6.5C 59.8532,7.5237 60.5198,8.85703 60.5,10.5C 58.1432,10.6633 55.8098,10.4966 53.5,10C 55.1667,9.66667 56.8333,9.33333 58.5,9C 47.698,7.89402 37.0314,8.56069 26.5,11C 27.7375,11.2321 28.7375,11.7321 29.5,12.5C 28.7611,12.369 28.0944,12.5357 27.5,13C 28.7101,14.0391 29.7101,15.2058 30.5,16.5C 29.7961,18.3442 28.4628,18.8442 26.5,18C 24.6096,15.9384 22.6096,14.1051 20.5,12.5C 19.8333,11.8333 19.1667,11.1667 18.5,10.5C 18.5,10.1667 18.5,9.83333 18.5,9.5C 18.81,6.2869 18.4767,3.2869 17.5,0.5 Z"/></g>
<g><path style="opacity:0.816" fill="#cc4138" d="M 17.5,0.5 C 18.4767,3.2869 18.81,6.2869 18.5,9.5C 17.5084,9.67158 16.8417,9.33825 16.5,8.5C 16.1936,5.61456 16.5269,2.9479 17.5,0.5 Z"/></g>
<g><path style="opacity:1" fill="#e43424" d="M 18.5,10.5 C 19.1667,11.1667 19.8333,11.8333 20.5,12.5C 20.6287,14.2161 20.962,15.8828 21.5,17.5C 20.8166,19.1765 19.4832,19.8432 17.5,19.5C 17.19,16.2869 17.5233,13.2869 18.5,10.5 Z"/></g>
<g><path style="opacity:1" fill="#d19891" d="M 16.5,8.5 C 16.8417,9.33825 17.5084,9.67158 18.5,9.5C 18.5,9.83333 18.5,10.1667 18.5,10.5C 17.5233,13.2869 17.19,16.2869 17.5,19.5C 19.4832,19.8432 20.8166,19.1765 21.5,17.5C 22.9238,19.5145 23.5905,21.8478 23.5,24.5C 20.0922,25.5778 18.0922,27.9111 17.5,31.5C 16.8333,31.5 16.5,31.8333 16.5,32.5C 14.9397,34.1561 13.9397,36.1561 13.5,38.5C 14.5049,28.3547 15.5049,18.3547 16.5,8.5 Z"/></g>
<g><path style="opacity:1" fill="#0a0808" d="M 47.5,0.5 C 52.8333,0.5 58.1667,0.5 63.5,0.5C 66.5184,0.335374 69.5184,0.50204 72.5,1C 71.062,1.21893 69.7287,1.71893 68.5,2.5C 74.953,3.16002 81.2863,4.32669 87.5,6C 88.6956,6.65431 88.6956,7.15431 87.5,7.5C 83.8823,6.64927 80.2157,5.9826 76.5,5.5C 74.9334,5.47697 73.6001,5.97697 72.5,7C 78.8653,7.40659 84.8653,8.90659 90.5,11.5C 95.7288,26.4158 99.0621,41.7491 100.5,57.5C 99.466,70.6469 98.7993,83.8136 98.5,97C 99.1551,121.496 99.6551,145.996 100,170.5C 100.542,173.292 101.376,175.958 102.5,178.5C 102.167,178.5 101.833,178.5 101.5,178.5C 95.691,179.893 90.0244,181.559 84.5,183.5C 74.4543,185.009 64.4543,186.842 54.5,189C 47.8823,190.705 41.549,192.872 35.5,195.5C 33.1016,195.741 31.1016,195.074 29.5,193.5C 31.3759,188.294 33.0426,182.961 34.5,177.5C 40.0652,179.799 42.8986,177.799 43,171.5C 45.1667,170 46.6667,170.5 47.5,173C 46.6705,174.465 46.5038,175.965 47,177.5C 51.6356,169.853 49.8022,167.353 41.5,170C 40.7511,171.734 40.2511,173.567 40,175.5C 38.9887,176.337 37.8221,176.67 36.5,176.5C 36.5,175.167 36.5,173.833 36.5,172.5C 37.0431,172.44 37.3764,172.107 37.5,171.5C 36.675,170.614 35.675,170.281 34.5,170.5C 34.5,169.167 34.5,167.833 34.5,166.5C 39.1656,165.5 43.8322,164.5 48.5,163.5C 48.8333,162.167 49.1667,160.833 49.5,159.5C 49.4146,157.667 48.7479,156.334 47.5,155.5C 46.7321,157.715 46.0654,160.048 45.5,162.5C 44.5,162.5 43.5,162.5 42.5,162.5C 42.7852,160.712 42.4519,159.045 41.5,157.5C 40.5344,159.396 40.2011,161.396 40.5,163.5C 39.1667,163.5 37.8333,163.5 36.5,163.5C 36.9746,160.918 36.3079,158.918 34.5,157.5C 33.9569,157.44 33.6236,157.107 33.5,156.5C 34.6016,155.824 35.6016,155.158 36.5,154.5C 36.5,153.167 36.5,151.833 36.5,150.5C 41.2029,150.88 45.5363,149.88 49.5,147.5C 48.6667,147.167 47.8333,146.833 47,146.5C 44.5379,147.159 42.0379,147.493 39.5,147.5C 37.4508,147.294 37.1175,146.461 38.5,145C 36.065,144.925 35.3984,144.092 36.5,142.5C 36.5,141.167 36.5,139.833 36.5,138.5C 40.924,138.348 45.2574,137.681 49.5,136.5C 50.391,135.89 51.391,135.557 52.5,135.5C 53.2389,135.369 53.9056,135.536 54.5,136C 51.0945,136.603 50.7612,137.769 53.5,139.5C 55.7094,138.894 57.876,138.227 60,137.5C 61.7785,138.479 63.4452,138.146 65,136.5C 65.3333,136.833 65.6667,137.167 66,137.5C 69.6504,135.954 73.4838,135.287 77.5,135.5C 77.6567,134.127 77.49,132.793 77,131.5C 75.3845,132.801 73.8845,132.801 72.5,131.5C 75.1331,130.189 75.1331,128.689 72.5,127C 74.7671,125.919 74.9338,124.419 73,122.5C 72.0192,125.689 70.6859,126.022 69,123.5C 68.51,124.793 68.3433,126.127 68.5,127.5C 69.552,127.351 70.552,127.517 71.5,128C 70.3333,128.5 69.5,129.333 69,130.5C 68.6667,129.833 68.3333,129.167 68,128.5C 67.6012,128.728 67.4346,129.062 67.5,129.5C 66.8333,129.5 66.1667,129.5 65.5,129.5C 59.6761,129.653 59.3428,128.987 64.5,127.5C 63.2815,127.891 62.4482,127.224 62,125.5C 59.6457,125.892 57.1457,125.892 54.5,125.5C 54.9175,124.778 55.5842,124.278 56.5,124C 55.7476,123.329 55.4142,122.496 55.5,121.5C 57.9327,120.452 57.9327,119.786 55.5,119.5C 56.5676,118.566 57.901,118.232 59.5,118.5C 60.2601,120.985 61.2601,120.985 62.5,118.5C 59.8327,117.894 57.166,117.061 54.5,116C 56.3817,115.802 58.0484,115.302 59.5,114.5C 61.4672,114.261 63.3005,114.594 65,115.5C 66.6279,114.181 66.4613,112.848 64.5,111.5C 63.8933,111.624 63.56,111.957 63.5,112.5C 62.1667,111.5 62.1667,110.5 63.5,109.5C 63.56,110.043 63.8933,110.376 64.5,110.5C 65.2508,109.624 65.7508,108.624 66,107.5C 66.3988,107.728 66.5654,108.062 66.5,108.5C 65.9162,111.285 66.9162,112.952 69.5,113.5C 70.7777,113.218 71.7777,112.551 72.5,111.5C 73.779,112.715 74.779,112.382 75.5,110.5C 76.4511,109.081 76.7845,107.415 76.5,105.5C 77.791,105.737 78.791,105.404 79.5,104.5C 80.1098,103.609 80.4431,102.609 80.5,101.5C 80.5,100.833 80.8333,100.5 81.5,100.5C 81.9175,101.222 82.5842,101.722 83.5,102C 82.8333,102.333 82.1667,102.667 81.5,103C 82.7494,103.74 83.7494,103.573 84.5,102.5C 84.8333,102.5 85.1667,102.5 85.5,102.5C 86.6879,103.684 87.8545,103.684 89,102.5C 89.4935,100.866 89.6602,99.1992 89.5,97.5C 88.5,97.5 87.5,97.5 86.5,97.5C 85.596,96.791 85.2627,95.791 85.5,94.5C 88.1456,89.2088 90.8123,83.8754 93.5,78.5C 94.973,75.9831 95.6397,73.1498 95.5,70C 95.4944,67.9674 95.1611,66.134 94.5,64.5C 93.7952,58.0685 90.4619,53.7352 84.5,51.5C 82.1934,49.9532 79.5267,49.2865 76.5,49.5C 73.7825,49.6144 71.1159,49.9477 68.5,50.5C 68.3252,48.1556 67.1585,46.489 65,45.5C 65.3744,47.7687 65.3744,50.102 65,52.5C 60.5372,55.1237 57.3706,58.7904 55.5,63.5C 52.9103,67.6932 51.9103,72.3599 52.5,77.5C 51.8689,75.0656 50.8689,72.7323 49.5,70.5C 50.2816,65.0155 50.2816,59.6822 49.5,54.5C 49.0269,53.0937 48.0269,52.427 46.5,52.5C 45.1917,51.7677 43.8584,50.9344 42.5,50C 47.7028,43.8998 54.3695,40.7332 62.5,40.5C 63.9867,45.6572 64.6534,45.3239 64.5,39.5C 58.0619,41.0064 51.7286,40.6731 45.5,38.5C 45.838,41.1569 45.1713,43.4902 43.5,45.5C 42.1667,44.8333 41.1667,43.8333 40.5,42.5C 36.8249,41.9436 33.3249,40.9436 30,39.5C 29.3292,40.2524 28.4959,40.5858 27.5,40.5C 27.8016,37.9407 27.4682,35.6074 26.5,33.5C 26.405,31.2143 25.7384,29.2143 24.5,27.5C 24.7373,26.209 24.404,25.209 23.5,24.5C 23.5905,21.8478 22.9238,19.5145 21.5,17.5C 20.962,15.8828 20.6287,14.2161 20.5,12.5C 22.6096,14.1051 24.6096,15.9384 26.5,18C 28.4628,18.8442 29.7961,18.3442 30.5,16.5C 31.404,17.209 31.7373,18.209 31.5,19.5C 35.069,17.1914 39.069,16.0247 43.5,16C 39.2035,13.5745 34.5368,12.4078 29.5,12.5C 28.7375,11.7321 27.7375,11.2321 26.5,11C 37.0314,8.56069 47.698,7.89402 58.5,9C 56.8333,9.33333 55.1667,9.66667 53.5,10C 55.8098,10.4966 58.1432,10.6633 60.5,10.5C 60.5198,8.85703 59.8532,7.5237 58.5,6.5C 59.0253,5.80762 59.6919,5.30762 60.5,5C 59.2068,4.50999 57.8734,4.34332 56.5,4.5C 56.6495,5.55198 56.4828,6.55198 56,7.5C 51.2982,5.9774 46.4649,4.81073 41.5,4C 35.2511,3.19131 29.0844,3.35797 23,4.5C 22.3333,3.5 22.3333,2.5 23,1.5C 30.0862,2.64559 37.2529,2.81225 44.5,2C 45.7375,1.76791 46.7375,1.26791 47.5,0.5 Z"/></g>
<g><path style="opacity:1" fill="#464646" d="M 29.5,12.5 C 34.5368,12.4078 39.2035,13.5745 43.5,16C 39.069,16.0247 35.069,17.1914 31.5,19.5C 31.7373,18.209 31.404,17.209 30.5,16.5C 29.7101,15.2058 28.7101,14.0391 27.5,13C 28.0944,12.5357 28.7611,12.369 29.5,12.5 Z"/></g>
<g><path style="opacity:1" fill="#e23c2c" d="M 23.5,24.5 C 22.2427,27.4274 20.2427,29.7607 17.5,31.5C 18.0922,27.9111 20.0922,25.5778 23.5,24.5 Z"/></g>
<g><path style="opacity:1" fill="#dd7369" d="M 23.5,24.5 C 24.404,25.209 24.7373,26.209 24.5,27.5C 23.0384,28.4577 21.7051,29.6244 20.5,31C 21.5,31.3333 22.5,31.6667 23.5,32C 21.567,32.2511 19.7337,32.7511 18,33.5C 17.5357,32.9056 17.369,32.2389 17.5,31.5C 20.2427,29.7607 22.2427,27.4274 23.5,24.5 Z"/></g>
<g><path style="opacity:1" fill="#de624d" d="M 16.5,32.5 C 17.5521,34.256 19.2188,34.9227 21.5,34.5C 21.67,35.8221 21.3366,36.9887 20.5,38C 18.1799,40.1617 15.5133,41.6617 12.5,42.5C 12.2322,40.901 12.5655,39.5676 13.5,38.5C 13.9397,36.1561 14.9397,34.1561 16.5,32.5 Z"/></g>
<g><path style="opacity:1" fill="#e93124" d="M 24.5,27.5 C 25.7384,29.2143 26.405,31.2143 26.5,33.5C 26.5,36.8333 26.5,40.1667 26.5,43.5C 25.5,43.5 24.5,43.5 23.5,43.5C 19.8313,43.3318 16.4979,44.3318 13.5,46.5C 12.6143,45.675 12.281,44.675 12.5,43.5C 12.5,43.1667 12.5,42.8333 12.5,42.5C 15.5133,41.6617 18.1799,40.1617 20.5,38C 21.3366,36.9887 21.67,35.8221 21.5,34.5C 19.2188,34.9227 17.5521,34.256 16.5,32.5C 16.5,31.8333 16.8333,31.5 17.5,31.5C 17.369,32.2389 17.5357,32.9056 18,33.5C 19.7337,32.7511 21.567,32.2511 23.5,32C 22.5,31.6667 21.5,31.3333 20.5,31C 21.7051,29.6244 23.0384,28.4577 24.5,27.5 Z"/></g>
<g><path style="opacity:1" fill="#282424" d="M 46.5,52.5 C 43.5,52.5 40.5,52.5 37.5,52.5C 36.0815,49.7113 33.7481,48.0447 30.5,47.5C 31.3805,44.9891 30.3805,43.3224 27.5,42.5C 27.5,41.8333 27.5,41.1667 27.5,40.5C 28.4959,40.5858 29.3292,40.2524 30,39.5C 33.3249,40.9436 36.8249,41.9436 40.5,42.5C 41.1667,43.8333 42.1667,44.8333 43.5,45.5C 45.1713,43.4902 45.838,41.1569 45.5,38.5C 51.7286,40.6731 58.0619,41.0064 64.5,39.5C 64.6534,45.3239 63.9867,45.6572 62.5,40.5C 54.3695,40.7332 47.7028,43.8998 42.5,50C 43.8584,50.9344 45.1917,51.7677 46.5,52.5 Z"/></g>
<g><path style="opacity:1" fill="#140a09" d="M 27.5,42.5 C 30.3805,43.3224 31.3805,44.9891 30.5,47.5C 33.7481,48.0447 36.0815,49.7113 37.5,52.5C 34.0866,55.386 33.7533,58.5527 36.5,62C 39.8333,62.6667 43.1667,62.6667 46.5,62C 49.0414,60.1516 50.0414,57.6516 49.5,54.5C 50.2816,59.6822 50.2816,65.0155 49.5,70.5C 48.4855,69.2353 46.9855,68.5687 45,68.5C 42.1523,68.7978 39.3189,69.1312 36.5,69.5C 36.762,68.0222 36.4287,66.6888 35.5,65.5C 34.1667,68.8333 34.1667,72.1667 35.5,75.5C 36.4287,74.3112 36.762,72.9778 36.5,71.5C 38.1667,71.5 39.8333,71.5 41.5,71.5C 41.9926,73.8056 42.3259,76.139 42.5,78.5C 31.9881,79.8914 31.9881,81.058 42.5,82C 40.5296,84.3157 38.1963,86.1491 35.5,87.5C 34.6143,88.325 34.281,89.325 34.5,90.5C 39.4632,89.5742 44.4632,88.9075 49.5,88.5C 50.2216,88.0825 50.7216,87.4158 51,86.5C 52.7134,87.8782 54.0467,89.5448 55,91.5C 56.5095,90.9103 58.0095,90.2436 59.5,89.5C 56.7196,86.9161 54.7196,83.9161 53.5,80.5C 53.3347,76.8183 53.5014,73.1516 54,69.5C 54.2321,68.2625 54.7321,67.2625 55.5,66.5C 55.6781,69.7454 57.0114,70.7454 59.5,69.5C 59.6621,71.5273 59.4955,73.5273 59,75.5C 58.4169,73.9984 57.5836,72.6651 56.5,71.5C 56.1667,72 55.8333,72.5 55.5,73C 56.6094,75.0466 57.2761,77.2133 57.5,79.5C 59.0252,82.563 61.0252,85.2297 63.5,87.5C 63.281,88.675 63.6143,89.675 64.5,90.5C 65.1067,90.3764 65.44,90.0431 65.5,89.5C 66.5336,88.3129 67.867,87.4796 69.5,87C 67.9442,84.499 68.6108,82.999 71.5,82.5C 73.083,82.4338 74.7497,82.7672 76.5,83.5C 78.2133,81.1496 80.5466,80.1496 83.5,80.5C 83.5,81.5 83.5,82.5 83.5,83.5C 82.1064,85.7082 80.1064,87.2082 77.5,88C 74.5,88.3333 71.5,88.6667 68.5,89C 73.7579,90.6135 78.7579,89.7802 83.5,86.5C 83.6567,87.8734 83.49,89.2068 83,90.5C 81.3484,91.3994 79.8484,92.3994 78.5,93.5C 79.9305,93.5792 81.2638,93.2458 82.5,92.5C 83.2652,93.6119 84.2652,94.2786 85.5,94.5C 85.2627,95.791 85.596,96.791 86.5,97.5C 85.6993,99.0418 85.366,100.708 85.5,102.5C 85.1667,102.5 84.8333,102.5 84.5,102.5C 83.9181,101.069 83.0848,99.7356 82,98.5C 81.5357,99.0944 81.369,99.7611 81.5,100.5C 80.8333,100.5 80.5,100.833 80.5,101.5C 78.6827,100.781 78.0161,99.7808 78.5,98.5C 75.9211,99.8883 75.9211,101.388 78.5,103C 76.0684,104.087 76.4017,104.587 79.5,104.5C 78.791,105.404 77.791,105.737 76.5,105.5C 76.7845,107.415 76.4511,109.081 75.5,110.5C 75.5,109.167 75.5,107.833 75.5,106.5C 74.5,106.5 73.5,106.5 72.5,106.5C 72.5,108.167 72.5,109.833 72.5,111.5C 71.7777,112.551 70.7777,113.218 69.5,113.5C 69.8039,112.85 70.1373,112.183 70.5,111.5C 69.5585,111.511 68.8919,111.011 68.5,110C 70.8407,107.451 70.1741,106.951 66.5,108.5C 66.5654,108.062 66.3988,107.728 66,107.5C 65.7508,108.624 65.2508,109.624 64.5,110.5C 63.8933,110.376 63.56,110.043 63.5,109.5C 64.0674,108.58 63.4008,108.246 61.5,108.5C 61.5,110.167 61.5,111.833 61.5,113.5C 63.4008,113.754 64.0674,113.42 63.5,112.5C 63.56,111.957 63.8933,111.624 64.5,111.5C 66.4613,112.848 66.6279,114.181 65,115.5C 63.3005,114.594 61.4672,114.261 59.5,114.5C 58.0484,115.302 56.3817,115.802 54.5,116C 57.166,117.061 59.8327,117.894 62.5,118.5C 61.5,118.5 60.5,118.5 59.5,118.5C 57.901,118.232 56.5676,118.566 55.5,119.5C 54.1667,120.167 54.1667,120.833 55.5,121.5C 55.4142,122.496 55.7476,123.329 56.5,124C 55.5842,124.278 54.9175,124.778 54.5,125.5C 53.2046,126.031 52.5379,127.364 52.5,129.5C 52.5,131.5 52.5,133.5 52.5,135.5C 51.391,135.557 50.391,135.89 49.5,136.5C 49.38,135.414 48.7133,134.747 47.5,134.5C 43.8697,135.426 40.203,136.093 36.5,136.5C 36.719,135.325 36.3857,134.325 35.5,133.5C 35.1667,135 34.8333,136.5 34.5,138C 34.5687,139.986 35.2353,141.486 36.5,142.5C 35.3984,144.092 36.065,144.925 38.5,145C 37.1175,146.461 37.4508,147.294 39.5,147.5C 38.791,148.404 37.791,148.737 36.5,148.5C 36.719,147.325 36.3857,146.325 35.5,145.5C 35.1667,147 34.8333,148.5 34.5,150C 34.5687,151.986 35.2353,153.486 36.5,154.5C 35.6016,155.158 34.6016,155.824 33.5,156.5C 33.6236,157.107 33.9569,157.44 34.5,157.5C 34.5,160.5 34.5,163.5 34.5,166.5C 34.5,167.833 34.5,169.167 34.5,170.5C 35.675,170.281 36.675,170.614 37.5,171.5C 37.3764,172.107 37.0431,172.44 36.5,172.5C 36.44,171.957 36.1067,171.624 35.5,171.5C 34.5344,173.396 34.2011,175.396 34.5,177.5C 33.0426,182.961 31.3759,188.294 29.5,193.5C 29.5,193.167 29.5,192.833 29.5,192.5C 29.2617,179.497 28.9284,166.497 28.5,153.5C 28.5,137.5 28.5,121.5 28.5,105.5C 28.5453,84.4924 28.2119,63.4924 27.5,42.5 Z"/></g>
<g><path style="opacity:1" fill="#756943" d="M 84.5,51.5 C 78.9921,50.5515 73.6587,50.2182 68.5,50.5C 71.1159,49.9477 73.7825,49.6144 76.5,49.5C 79.5267,49.2865 82.1934,49.9532 84.5,51.5 Z"/></g>
<g><path style="opacity:1" fill="#6d5546" d="M 20.5,52.5 C 22.0745,54.5475 23.0745,56.8808 23.5,59.5C 22.1266,59.6567 20.7932,59.49 19.5,59C 21.9915,57.7508 21.8249,56.5842 19,55.5C 17.872,57.3453 17.372,59.3453 17.5,61.5C 16.3659,59.0336 16.1993,56.367 17,53.5C 18.0113,52.6634 19.1779,52.33 20.5,52.5 Z"/></g>
<g><path style="opacity:1" fill="#1c1613" d="M 68.5,50.5 C 73.6587,50.2182 78.9921,50.5515 84.5,51.5C 90.4619,53.7352 93.7952,58.0685 94.5,64.5C 94.5628,69.2029 94.2295,73.8696 93.5,78.5C 90.8123,83.8754 88.1456,89.2088 85.5,94.5C 84.2652,94.2786 83.2652,93.6119 82.5,92.5C 81.2638,93.2458 79.9305,93.5792 78.5,93.5C 79.8484,92.3994 81.3484,91.3994 83,90.5C 83.49,89.2068 83.6567,87.8734 83.5,86.5C 84.8098,84.8523 86.1431,83.1856 87.5,81.5C 87.3333,81.1667 87.1667,80.8333 87,80.5C 85.9609,81.7101 84.7942,82.7101 83.5,83.5C 83.5,82.5 83.5,81.5 83.5,80.5C 80.5466,80.1496 78.2133,81.1496 76.5,83.5C 75.9101,82.234 75.4101,80.9007 75,79.5C 74.586,79.9574 74.086,80.2907 73.5,80.5C 71.2674,80.1355 69.434,79.1355 68,77.5C 67.6012,77.7284 67.4346,78.0618 67.5,78.5C 66.3478,77.375 65.3478,77.375 64.5,78.5C 64.3893,79.1174 64.056,79.6174 63.5,80C 64.132,83.2704 64.7986,86.4371 65.5,89.5C 65.44,90.0431 65.1067,90.3764 64.5,90.5C 63.6143,89.675 63.281,88.675 63.5,87.5C 62.1667,84.8333 60.8333,82.1667 59.5,79.5C 60.3019,78.0484 60.8019,76.3817 61,74.5C 61.2492,75.624 61.7492,76.624 62.5,77.5C 64.7721,76.5589 66.7721,75.2255 68.5,73.5C 68.2907,72.914 67.9574,72.414 67.5,72C 72.2699,73.5771 74.4366,71.7438 74,66.5C 74.4828,67.448 74.6495,68.448 74.5,69.5C 78.7751,68.9391 81.2751,66.6058 82,62.5C 82.6667,66.5 83.3333,66.5 84,62.5C 85.5445,63.8213 86.7112,63.4879 87.5,61.5C 86.5585,61.5105 85.8919,61.0105 85.5,60C 86.1667,59.3333 86.8333,58.6667 87.5,58C 87.1667,57.5 86.8333,57 86.5,56.5C 83.9376,58.9876 80.9376,60.6542 77.5,61.5C 76.7519,59.4336 77.4186,57.6002 79.5,56C 77.8602,55.6522 76.5268,56.1522 75.5,57.5C 71.8765,59.934 67.8765,61.6007 63.5,62.5C 63.1043,65.0444 63.771,67.2111 65.5,69C 64.4214,69.956 63.2547,70.7894 62,71.5C 61.5831,70.244 60.7498,69.5774 59.5,69.5C 57.0114,70.7454 55.6781,69.7454 55.5,66.5C 55.5,65.5 55.5,64.5 55.5,63.5C 57.3706,58.7904 60.5372,55.1237 65,52.5C 65.3744,50.102 65.3744,47.7687 65,45.5C 67.1585,46.489 68.3252,48.1556 68.5,50.5 Z"/></g>
<g><path style="opacity:1" fill="#ec251f" d="M 37.5,52.5 C 40.5,52.5 43.5,52.5 46.5,52.5C 48.0269,52.427 49.0269,53.0937 49.5,54.5C 50.0414,57.6516 49.0414,60.1516 46.5,62C 43.1667,62.6667 39.8333,62.6667 36.5,62C 33.7533,58.5527 34.0866,55.386 37.5,52.5 Z"/></g>
<g><path style="opacity:1" fill="#241716" d="M 38.5,54.5 C 41.5,54.5 44.5,54.5 47.5,54.5C 47.8423,58.8243 45.8423,60.8243 41.5,60.5C 36.2895,60.5256 35.2895,58.5256 38.5,54.5 Z"/></g>
<g><path style="opacity:1" fill="#aea66b" d="M 80.5,56.5 C 81.3864,55.2241 82.3864,55.2241 83.5,56.5C 82.7666,57.087 81.7666,57.087 80.5,56.5 Z"/></g>
<g><path style="opacity:1" fill="#bbb9b8" d="M 23.5,59.5 C 23.6495,60.552 23.4828,61.552 23,62.5C 21.3005,61.5939 19.4672,61.2606 17.5,61.5C 17.372,59.3453 17.872,57.3453 19,55.5C 21.8249,56.5842 21.9915,57.7508 19.5,59C 20.7932,59.49 22.1266,59.6567 23.5,59.5 Z"/></g>
<g><path style="opacity:1" fill="#9a8854" d="M 63.5,60.5 C 66.6496,55.9265 70.983,54.0932 76.5,55C 71.6357,55.7817 67.3024,57.615 63.5,60.5 Z"/></g>
<g><path style="opacity:1" fill="#cdcdce" d="M 77.5,61.5 C 76.8826,61.6107 76.3826,61.944 76,62.5C 75.5065,60.8659 75.3398,59.1992 75.5,57.5C 76.5268,56.1522 77.8602,55.6522 79.5,56C 77.4186,57.6002 76.7519,59.4336 77.5,61.5 Z"/></g>
<g><path style="opacity:1" fill="#dd5643" d="M 11.5,85.5 C 11.5,83.5 11.5,81.5 11.5,79.5C 11.2133,71.1139 11.7133,62.7805 13,54.5C 14.9355,56.7803 15.7689,59.447 15.5,62.5C 14.6667,70.8333 13.8333,79.1667 13,87.5C 12.7216,86.5842 12.2216,85.9175 11.5,85.5 Z"/></g>
<g><path style="opacity:1" fill="#947f44" d="M 63.5,60.5 C 63.5,61.1667 63.5,61.8333 63.5,62.5C 62.1154,63.5736 60.9487,64.9069 60,66.5C 59.8513,63.8043 61.018,61.8043 63.5,60.5 Z"/></g>
<g><path style="opacity:1" fill="#7b4e41" d="M 23.5,59.5 C 25.2451,62.8855 25.7451,66.5521 25,70.5C 24.6322,71.91 23.7989,72.91 22.5,73.5C 21.4756,72.1482 20.4756,70.8149 19.5,69.5C 18.2264,67.0075 17.5597,64.3408 17.5,61.5C 19.4672,61.2606 21.3005,61.5939 23,62.5C 23.4828,61.552 23.6495,60.552 23.5,59.5 Z"/></g>
<g><path style="opacity:1" fill="#c9221f" d="M 86.5,71.5 C 86.1667,71.5 85.8333,71.5 85.5,71.5C 85.5,70.5 85.5,69.5 85.5,68.5C 85.1583,67.6618 84.4916,67.3284 83.5,67.5C 84.2545,65.5337 85.4212,65.2004 87,66.5C 87.6397,68.265 87.4731,69.9317 86.5,71.5 Z"/></g>
<g><path style="opacity:1" fill="#8a6b29" d="M 88.5,62.5 C 90.0468,64.8066 90.7135,67.4733 90.5,70.5C 90.5474,73.2948 90.0474,75.9615 89,78.5C 89.8267,73.1784 89.66,67.8451 88.5,62.5 Z"/></g>
<g><path style="opacity:1" fill="#ec251f" d="M 49.5,70.5 C 46.8728,71.0916 44.2062,71.4249 41.5,71.5C 39.8333,71.5 38.1667,71.5 36.5,71.5C 36.762,72.9778 36.4287,74.3112 35.5,75.5C 34.1667,72.1667 34.1667,68.8333 35.5,65.5C 36.4287,66.6888 36.762,68.0222 36.5,69.5C 39.3189,69.1312 42.1523,68.7978 45,68.5C 46.9855,68.5687 48.4855,69.2353 49.5,70.5 Z"/></g>
<g><path style="opacity:1" fill="#b8b8b8" d="M 59.5,79.5 C 58.8333,79.5 58.1667,79.5 57.5,79.5C 57.2761,77.2133 56.6094,75.0466 55.5,73C 55.8333,72.5 56.1667,72 56.5,71.5C 57.5836,72.6651 58.4169,73.9984 59,75.5C 59.4955,73.5273 59.6621,71.5273 59.5,69.5C 60.7498,69.5774 61.5831,70.244 62,71.5C 63.2547,70.7894 64.4214,69.956 65.5,69C 63.771,67.2111 63.1043,65.0444 63.5,62.5C 67.8765,61.6007 71.8765,59.934 75.5,57.5C 75.3398,59.1992 75.5065,60.8659 76,62.5C 76.3826,61.944 76.8826,61.6107 77.5,61.5C 80.9376,60.6542 83.9376,58.9876 86.5,56.5C 86.8333,57 87.1667,57.5 87.5,58C 86.8333,58.6667 86.1667,59.3333 85.5,60C 85.8919,61.0105 86.5585,61.5105 87.5,61.5C 86.7112,63.4879 85.5445,63.8213 84,62.5C 83.3333,66.5 82.6667,66.5 82,62.5C 81.2751,66.6058 78.7751,68.9391 74.5,69.5C 74.6495,68.448 74.4828,67.448 74,66.5C 74.4366,71.7438 72.2699,73.5771 67.5,72C 67.9574,72.414 68.2907,72.914 68.5,73.5C 66.7721,75.2255 64.7721,76.5589 62.5,77.5C 61.7492,76.624 61.2492,75.624 61,74.5C 60.8019,76.3817 60.3019,78.0484 59.5,79.5 Z"/></g>
<g><path style="opacity:1" fill="#242424" d="M 71.5,62.5 C 72.4734,62.9867 73.4734,63.4867 74.5,64C 73.1414,65.2045 72.1414,66.7045 71.5,68.5C 71.891,67.2815 71.2244,66.4482 69.5,66C 70.9733,65.2904 71.6399,64.1238 71.5,62.5 Z"/></g>
<g><path style="opacity:1" fill="#5b492b" d="M 94.5,64.5 C 95.1611,66.134 95.4944,67.9674 95.5,70C 95.6397,73.1498 94.973,75.9831 93.5,78.5C 94.2295,73.8696 94.5628,69.2029 94.5,64.5 Z"/></g>
<g><path style="opacity:1" fill="#831b1f" d="M 83.5,67.5 C 84.4916,67.3284 85.1583,67.6618 85.5,68.5C 82.5722,69.5914 80.4055,71.5914 79,74.5C 78.5065,72.8659 78.3398,71.1992 78.5,69.5C 80.5138,69.6085 82.1805,68.9418 83.5,67.5 Z"/></g>
<g><path style="opacity:1" fill="#28201e" d="M 49.5,70.5 C 50.8689,72.7323 51.8689,75.0656 52.5,77.5C 52.2627,78.791 52.596,79.791 53.5,80.5C 54.7196,83.9161 56.7196,86.9161 59.5,89.5C 58.0095,90.2436 56.5095,90.9103 55,91.5C 54.0467,89.5448 52.7134,87.8782 51,86.5C 50.7216,87.4158 50.2216,88.0825 49.5,88.5C 49.0296,87.3065 48.0296,86.6399 46.5,86.5C 44.1678,87.1725 41.8344,87.3392 39.5,87C 43.2816,85.0456 46.6149,82.5456 49.5,79.5C 47.2573,78.5258 44.924,78.1924 42.5,78.5C 42.3259,76.139 41.9926,73.8056 41.5,71.5C 44.2062,71.4249 46.8728,71.0916 49.5,70.5 Z"/></g>
<g><path style="opacity:1" fill="#5f1d1d" d="M 85.5,71.5 C 85.8333,71.5 86.1667,71.5 86.5,71.5C 85.9717,72.7206 85.305,73.8873 84.5,75C 84.7284,75.3988 85.0618,75.5654 85.5,75.5C 84.7095,76.4013 83.7095,77.0679 82.5,77.5C 82.9925,75.1815 83.9925,73.1815 85.5,71.5 Z"/></g>
<g><path style="opacity:1" fill="#931e20" d="M 69.5,75.5 C 70.5676,74.5655 71.901,74.2322 73.5,74.5C 73.6882,76.1033 73.1882,77.4366 72,78.5C 71.7645,76.8807 70.9311,75.8807 69.5,75.5 Z"/></g>
<g><path style="opacity:1" fill="#e22422" d="M 74.5,73.5 C 76.1484,74.7772 77.9817,75.7772 80,76.5C 80.6667,77.5 80.6667,78.5 80,79.5C 78.5587,78.13 76.892,77.13 75,76.5C 74.5172,75.552 74.3505,74.552 74.5,73.5 Z"/></g>
<g><path style="opacity:1" fill="#715d35" d="M 55.5,63.5 C 55.5,64.5 55.5,65.5 55.5,66.5C 54.7321,67.2625 54.2321,68.2625 54,69.5C 53.5014,73.1516 53.3347,76.8183 53.5,80.5C 52.596,79.791 52.2627,78.791 52.5,77.5C 51.9103,72.3599 52.9103,67.6932 55.5,63.5 Z"/></g>
<g><path style="opacity:1" fill="#c32524" d="M 82.5,77.5 C 83.7095,77.0679 84.7095,76.4013 85.5,75.5C 87.5065,74.3215 87.8398,74.8215 86.5,77C 84.9194,77.7065 83.4194,78.5399 82,79.5C 81.3083,78.5632 81.475,77.8966 82.5,77.5 Z"/></g>
<g><path style="opacity:1" fill="#e3231f" d="M 42.5,78.5 C 44.924,78.1924 47.2573,78.5258 49.5,79.5C 46.6149,82.5456 43.2816,85.0456 39.5,87C 41.8344,87.3392 44.1678,87.1725 46.5,86.5C 48.0296,86.6399 49.0296,87.3065 49.5,88.5C 44.4632,88.9075 39.4632,89.5742 34.5,90.5C 34.281,89.325 34.6143,88.325 35.5,87.5C 38.1963,86.1491 40.5296,84.3157 42.5,82C 31.9881,81.058 31.9881,79.8914 42.5,78.5 Z"/></g>
<g><path style="opacity:1" fill="#551413" d="M 64.5,78.5 C 65.3478,77.375 66.3478,77.375 67.5,78.5C 67.5,79.5 67.5,80.5 67.5,81.5C 69.099,81.2322 70.4324,81.5655 71.5,82.5C 68.6108,82.999 67.9442,84.499 69.5,87C 67.867,87.4796 66.5336,88.3129 65.5,89.5C 65.815,85.6286 65.4816,81.9619 64.5,78.5 Z"/></g>
<g><path style="opacity:1" fill="#d62322" d="M 76.5,83.5 C 74.7497,82.7672 73.083,82.4338 71.5,82.5C 70.4324,81.5655 69.099,81.2322 67.5,81.5C 67.5,80.5 67.5,79.5 67.5,78.5C 67.4346,78.0618 67.6012,77.7284 68,77.5C 69.434,79.1355 71.2674,80.1355 73.5,80.5C 74.086,80.2907 74.586,79.9574 75,79.5C 75.4101,80.9007 75.9101,82.234 76.5,83.5 Z"/></g>
<g><path style="opacity:1" fill="#f82726" d="M 64.5,78.5 C 65.4816,81.9619 65.815,85.6286 65.5,89.5C 64.7986,86.4371 64.132,83.2704 63.5,80C 64.056,79.6174 64.3893,79.1174 64.5,78.5 Z"/></g>
<g><path style="opacity:1" fill="#97814c" d="M 57.5,79.5 C 58.1667,79.5 58.8333,79.5 59.5,79.5C 60.8333,82.1667 62.1667,84.8333 63.5,87.5C 61.0252,85.2297 59.0252,82.563 57.5,79.5 Z"/></g>
<g><path style="opacity:1" fill="#d63f33" d="M 26.5,33.5 C 27.4682,35.6074 27.8016,37.9407 27.5,40.5C 27.5,41.1667 27.5,41.8333 27.5,42.5C 28.2119,63.4924 28.5453,84.4924 28.5,105.5C 28.1667,105.5 27.8333,105.5 27.5,105.5C 25.4077,100.217 22.241,95.5501 18,91.5C 17.4501,87.1546 17.7835,83.8212 19,81.5C 20.3333,82.8333 21.6667,84.1667 23,85.5C 23.2213,82.0569 24.2213,81.7236 26,84.5C 26.1667,84 26.3333,83.5 26.5,83C 24.1543,79.4043 21.6543,75.9043 19,72.5C 18.2599,71.2506 18.4265,70.2506 19.5,69.5C 20.4756,70.8149 21.4756,72.1482 22.5,73.5C 23.7989,72.91 24.6322,71.91 25,70.5C 25.7451,66.5521 25.2451,62.8855 23.5,59.5C 23.0745,56.8808 22.0745,54.5475 20.5,52.5C 21.7778,50.2009 23.1111,47.8676 24.5,45.5C 24.1373,44.8165 23.8039,44.1499 23.5,43.5C 24.5,43.5 25.5,43.5 26.5,43.5C 26.5,40.1667 26.5,36.8333 26.5,33.5 Z"/></g>
<g><path style="opacity:1" fill="#db7967" d="M 12.5,43.5 C 12.281,44.675 12.6143,45.675 13.5,46.5C 16.4979,44.3318 19.8313,43.3318 23.5,43.5C 23.8039,44.1499 24.1373,44.8165 24.5,45.5C 23.1111,47.8676 21.7778,50.2009 20.5,52.5C 19.1779,52.33 18.0113,52.6634 17,53.5C 16.1993,56.367 16.3659,59.0336 17.5,61.5C 17.5597,64.3408 18.2264,67.0075 19.5,69.5C 18.4265,70.2506 18.2599,71.2506 19,72.5C 21.6543,75.9043 24.1543,79.4043 26.5,83C 26.3333,83.5 26.1667,84 26,84.5C 24.2213,81.7236 23.2213,82.0569 23,85.5C 21.6667,84.1667 20.3333,82.8333 19,81.5C 17.7835,83.8212 17.4501,87.1546 18,91.5C 22.241,95.5501 25.4077,100.217 27.5,105.5C 27.2172,106.289 26.7172,106.956 26,107.5C 25,107.167 24,106.833 23,106.5C 23.1257,102.538 21.7924,99.2048 19,96.5C 17.548,97.9071 17.7147,99.4071 19.5,101C 18.9781,101.561 18.6448,102.228 18.5,103C 19.472,105.268 20.8054,107.268 22.5,109C 21.552,109.483 20.552,109.649 19.5,109.5C 20.1264,112.315 21.4598,114.815 23.5,117C 23,117.5 22.5,118 22,118.5C 20.0448,117.547 18.3782,116.213 17,114.5C 13.9031,115.289 13.7364,116.456 16.5,118C 15.2828,120.011 15.6161,122.011 17.5,124C 17,124.5 16.5,125 16,125.5C 14.4823,120.984 12.9823,116.651 11.5,112.5C 12.7861,103.497 12.7861,94.4972 11.5,85.5C 12.2216,85.9175 12.7216,86.5842 13,87.5C 13.8333,79.1667 14.6667,70.8333 15.5,62.5C 15.7689,59.447 14.9355,56.7803 13,54.5C 11.7133,62.7805 11.2133,71.1139 11.5,79.5C 10.341,68.6745 10.1743,57.6745 11,46.5C 11.2321,45.2625 11.7321,44.2625 12.5,43.5 Z"/></g>
<g><path style="opacity:1" fill="#8d7538" d="M 83.5,86.5 C 78.7579,89.7802 73.7579,90.6135 68.5,89C 71.5,88.6667 74.5,88.3333 77.5,88C 80.1064,87.2082 82.1064,85.7082 83.5,83.5C 84.7942,82.7101 85.9609,81.7101 87,80.5C 87.1667,80.8333 87.3333,81.1667 87.5,81.5C 86.1431,83.1856 84.8098,84.8523 83.5,86.5 Z"/></g>
<g><path style="opacity:1" fill="#675632" d="M 78.5,93.5 C 74.0469,95.9632 69.3803,96.1299 64.5,94C 69.1637,94.8253 73.8304,94.6586 78.5,93.5 Z"/></g>
<g><path style="opacity:1" fill="#9a1f1f" d="M 86.5,97.5 C 87.5,97.5 88.5,97.5 89.5,97.5C 89.6602,99.1992 89.4935,100.866 89,102.5C 87.8545,103.684 86.6879,103.684 85.5,102.5C 85.366,100.708 85.6993,99.0418 86.5,97.5 Z"/></g>
<g><path style="opacity:1" fill="#de231f" d="M 47.5,92.5 C 49.3878,94.9878 50.0545,97.9878 49.5,101.5C 44.4516,101.842 39.4516,102.508 34.5,103.5C 34.1826,100.428 34.5159,97.4281 35.5,94.5C 36.4656,96.396 36.7989,98.396 36.5,100.5C 37.8333,100.5 39.1667,100.5 40.5,100.5C 40.5,98.5 40.5,96.5 40.5,94.5C 41.5,94.5 42.5,94.5 43.5,94.5C 43.5,96.1667 43.5,97.8333 43.5,99.5C 44.8333,99.5 46.1667,99.5 47.5,99.5C 47.5,97.1667 47.5,94.8333 47.5,92.5 Z"/></g>
<g><path style="opacity:1" fill="#cc282b" d="M 84.5,102.5 C 83.7494,103.573 82.7494,103.74 81.5,103C 82.1667,102.667 82.8333,102.333 83.5,102C 82.5842,101.722 81.9175,101.222 81.5,100.5C 81.369,99.7611 81.5357,99.0944 82,98.5C 83.0848,99.7356 83.9181,101.069 84.5,102.5 Z"/></g>
<g><path style="opacity:1" fill="#b42226" d="M 57.5,101.5 C 60.5983,101.413 60.9316,101.913 58.5,103C 61.0643,104.481 61.0643,105.981 58.5,107.5C 57.5344,105.604 57.2011,103.604 57.5,101.5 Z"/></g>
<g><path style="opacity:1" fill="#be2526" d="M 72.5,99.5 C 73.5289,100.126 74.5289,100.959 75.5,102C 73.0087,102.626 73.0087,103.459 75.5,104.5C 74.675,105.386 73.675,105.719 72.5,105.5C 72.5,103.5 72.5,101.5 72.5,99.5 Z"/></g>
<g><path style="opacity:1" fill="#a91f21" d="M 80.5,101.5 C 80.4431,102.609 80.1098,103.609 79.5,104.5C 76.4017,104.587 76.0684,104.087 78.5,103C 75.9211,101.388 75.9211,99.8883 78.5,98.5C 78.0161,99.7808 78.6827,100.781 80.5,101.5 Z"/></g>
<g><path style="opacity:1" fill="#bc2323" d="M 52.5,101.5 C 55.7181,101.651 56.0515,102.484 53.5,104C 56.1667,104.667 56.1667,105.333 53.5,106C 56.0278,106.669 56.0278,107.502 53.5,108.5C 52.5258,106.257 52.1924,103.924 52.5,101.5 Z"/></g>
<g><path style="opacity:1" fill="#9a1b1d" d="M 61.5,100.5 C 62.8333,100.5 64.1667,100.5 65.5,100.5C 65.5772,103.012 64.5772,105.012 62.5,106.5C 61.5344,104.604 61.2011,102.604 61.5,100.5 Z"/></g>
<g><path style="opacity:1" fill="#9f1d1f" d="M 67.5,99.5 C 68.5,99.5 69.5,99.5 70.5,99.5C 70.6621,101.527 70.4955,103.527 70,105.5C 69.6667,105.167 69.3333,104.833 69,104.5C 68.6924,105.308 68.1924,105.975 67.5,106.5C 66.2857,104.141 66.2857,101.808 67.5,99.5 Z"/></g>
<g><path style="opacity:1" fill="#a82323" d="M 75.5,110.5 C 74.779,112.382 73.779,112.715 72.5,111.5C 72.5,109.833 72.5,108.167 72.5,106.5C 73.5,106.5 74.5,106.5 75.5,106.5C 75.5,107.833 75.5,109.167 75.5,110.5 Z"/></g>
<g><path style="opacity:1" fill="#931b1c" d="M 59.5,114.5 C 58.3065,114.03 57.6399,113.03 57.5,111.5C 57.8333,110.5 58.1667,109.5 58.5,108.5C 59.4656,110.396 59.7989,112.396 59.5,114.5 Z"/></g>
<g><path style="opacity:1" fill="#ca2424" d="M 63.5,109.5 C 62.1667,110.5 62.1667,111.5 63.5,112.5C 64.0674,113.42 63.4008,113.754 61.5,113.5C 61.5,111.833 61.5,110.167 61.5,108.5C 63.4008,108.246 64.0674,108.58 63.5,109.5 Z"/></g>
<g><path style="opacity:1" fill="#9d1d1c" d="M 69.5,113.5 C 66.9162,112.952 65.9162,111.285 66.5,108.5C 70.1741,106.951 70.8407,107.451 68.5,110C 68.8919,111.011 69.5585,111.511 70.5,111.5C 70.1373,112.183 69.8039,112.85 69.5,113.5 Z"/></g>
<g><path style="opacity:1" fill="#e62420" d="M 45.5,106.5 C 46.8221,106.33 47.9887,106.663 49,107.5C 50.1705,114.165 47.3372,117.165 40.5,116.5C 34.9334,117.234 33.1,114.901 35,109.5C 35.6891,108.643 36.5224,107.977 37.5,107.5C 36.8686,109.478 36.8686,111.645 37.5,114C 40.594,114.652 43.594,114.318 46.5,113C 47.0585,112.275 47.3918,111.442 47.5,110.5C 46.7745,109.133 46.1079,107.8 45.5,106.5 Z"/></g>
<g><path style="opacity:1" fill="#bd2321" d="M 52.5,109.5 C 53.8333,109.5 55.1667,109.5 56.5,109.5C 56.5086,111.308 56.0086,112.975 55,114.5C 53.984,113.366 53.3173,113.699 53,115.5C 52.5045,113.527 52.3379,111.527 52.5,109.5 Z"/></g>
<g><path style="opacity:1" fill="#9f9f9f" d="M 63.5,117.5 C 66.9571,117.667 67.2904,118.667 64.5,120.5C 63.6143,119.675 63.281,118.675 63.5,117.5 Z"/></g>
<g><path style="opacity:1" fill="#dcdcdc" d="M 59.5,118.5 C 60.5,118.5 61.5,118.5 62.5,118.5C 61.2601,120.985 60.2601,120.985 59.5,118.5 Z"/></g>
<g><path style="opacity:1" fill="#a4a4a4" d="M 55.5,119.5 C 57.9327,119.786 57.9327,120.452 55.5,121.5C 54.1667,120.833 54.1667,120.167 55.5,119.5 Z"/></g>
<g><path style="opacity:1" fill="#848484" d="M 76.5,121.5 C 78.0174,121.511 79.1841,122.177 80,123.5C 80.6689,120.972 81.5022,120.972 82.5,123.5C 80.8273,125.086 78.8273,125.753 76.5,125.5C 76.5,124.167 76.5,122.833 76.5,121.5 Z"/></g>
<g><path style="opacity:1" fill="#8f8f8f" d="M 83.5,120.5 C 87.0289,121.03 87.3622,122.363 84.5,124.5C 83.5713,123.311 83.238,121.978 83.5,120.5 Z"/></g>
<g><path style="opacity:1" fill="#dd5044" d="M 27.5,105.5 C 27.8333,105.5 28.1667,105.5 28.5,105.5C 28.5,121.5 28.5,137.5 28.5,153.5C 26.9328,152.319 26.0995,150.653 26,148.5C 24.3866,149.622 23.2199,149.122 22.5,147C 23.0606,145.434 22.3939,144.101 20.5,143C 19.5632,142.308 18.8966,142.475 18.5,143.5C 16.7483,143.582 15.7483,142.749 15.5,141C 16.2703,139.225 17.437,137.725 19,136.5C 20.3333,137.833 21.6667,139.167 23,140.5C 24.3033,139.888 25.4699,139.554 26.5,139.5C 24.0266,137.902 24.0266,136.402 26.5,135C 27.0875,132.805 26.4209,130.805 24.5,129C 24.8919,127.989 25.5585,127.489 26.5,127.5C 24.1827,126.769 22.016,125.102 20,122.5C 19.7605,124.977 20.5938,127.144 22.5,129C 21.6667,129.833 20.8333,130.667 20,131.5C 19.2613,130.426 18.2613,129.759 17,129.5C 16.4536,130.289 15.7869,131.289 15,132.5C 14.6667,132.167 14.3333,131.833 14,131.5C 14.8573,135.374 14.3573,139.04 12.5,142.5C 12.8229,136.31 12.4896,130.31 11.5,124.5C 11.5,120.5 11.5,116.5 11.5,112.5C 12.9823,116.651 14.4823,120.984 16,125.5C 16.5,125 17,124.5 17.5,124C 15.6161,122.011 15.2828,120.011 16.5,118C 13.7364,116.456 13.9031,115.289 17,114.5C 18.3782,116.213 20.0448,117.547 22,118.5C 22.5,118 23,117.5 23.5,117C 21.4598,114.815 20.1264,112.315 19.5,109.5C 20.552,109.649 21.552,109.483 22.5,109C 20.8054,107.268 19.472,105.268 18.5,103C 18.6448,102.228 18.9781,101.561 19.5,101C 17.7147,99.4071 17.548,97.9071 19,96.5C 21.7924,99.2048 23.1257,102.538 23,106.5C 24,106.833 25,107.167 26,107.5C 26.7172,106.956 27.2172,106.289 27.5,105.5 Z"/></g>
<g><path style="opacity:1" fill="#ea2420" d="M 41.5,121.5 C 42.4511,122.919 42.7845,124.585 42.5,126.5C 43.791,126.737 44.791,126.404 45.5,125.5C 47.0615,123.628 48.0615,121.295 48.5,118.5C 49.4841,121.428 49.8174,124.428 49.5,127.5C 44.5484,128.492 39.5484,129.158 34.5,129.5C 34.1826,126.428 34.5159,123.428 35.5,120.5C 36.5384,129.286 38.5384,129.619 41.5,121.5 Z"/></g>
<g><path style="opacity:1" fill="#771517" d="M 41.5,121.5 C 41.56,120.957 41.8933,120.624 42.5,120.5C 43.0014,122.655 44.0014,124.322 45.5,125.5C 44.791,126.404 43.791,126.737 42.5,126.5C 42.7845,124.585 42.4511,122.919 41.5,121.5 Z"/></g>
<g><path style="opacity:1" fill="#adadad" d="M 65.5,123.5 C 66.2389,123.369 66.9056,123.536 67.5,124C 67.273,125.135 66.9396,126.302 66.5,127.5C 65.5713,126.311 65.238,124.978 65.5,123.5 Z"/></g>
<g><path style="opacity:1" fill="#666666" d="M 54.5,125.5 C 57.1457,125.892 59.6457,125.892 62,125.5C 62.4482,127.224 63.2815,127.891 64.5,127.5C 59.3428,128.987 59.6761,129.653 65.5,129.5C 65.5,130.833 65.5,132.167 65.5,133.5C 63.5,133.5 61.5,133.5 59.5,133.5C 58.7325,129.861 58.0658,130.194 57.5,134.5C 56.5,134.5 55.5,134.5 54.5,134.5C 54.3505,133.448 54.5172,132.448 55,131.5C 55.3333,131.833 55.6667,132.167 56,132.5C 56.3742,131.584 56.8742,130.75 57.5,130C 55.8659,129.506 54.1992,129.34 52.5,129.5C 52.5379,127.364 53.2046,126.031 54.5,125.5 Z"/></g>
<g><path style="opacity:1" fill="#7d7d7d" d="M 72.5,131.5 C 70.9397,131.519 69.4397,131.852 68,132.5C 66.3167,131.824 66.1501,130.824 67.5,129.5C 67.4346,129.062 67.6012,128.728 68,128.5C 68.3333,129.167 68.6667,129.833 69,130.5C 69.5,129.333 70.3333,128.5 71.5,128C 70.552,127.517 69.552,127.351 68.5,127.5C 68.3433,126.127 68.51,124.793 69,123.5C 70.6859,126.022 72.0192,125.689 73,122.5C 74.9338,124.419 74.7671,125.919 72.5,127C 75.1331,128.689 75.1331,130.189 72.5,131.5 Z"/></g>
<g><path style="opacity:1" fill="#444444" d="M 88.5,129.5 C 89.4345,130.568 89.7678,131.901 89.5,133.5C 87.396,133.799 85.396,133.466 83.5,132.5C 84.955,131.888 86.6217,130.888 88.5,129.5 Z"/></g>
<g><path style="opacity:1" fill="#2f2f2f" d="M 52.5,129.5 C 54.1992,129.34 55.8659,129.506 57.5,130C 56.8742,130.75 56.3742,131.584 56,132.5C 55.6667,132.167 55.3333,131.833 55,131.5C 54.5172,132.448 54.3505,133.448 54.5,134.5C 55.5,134.5 56.5,134.5 57.5,134.5C 58.0658,130.194 58.7325,129.861 59.5,133.5C 61.5,133.5 63.5,133.5 65.5,133.5C 65.5,132.167 65.5,130.833 65.5,129.5C 66.1667,129.5 66.8333,129.5 67.5,129.5C 66.1501,130.824 66.3167,131.824 68,132.5C 69.4397,131.852 70.9397,131.519 72.5,131.5C 73.8845,132.801 75.3845,132.801 77,131.5C 77.49,132.793 77.6567,134.127 77.5,135.5C 73.4838,135.287 69.6504,135.954 66,137.5C 65.6667,137.167 65.3333,136.833 65,136.5C 63.4452,138.146 61.7785,138.479 60,137.5C 57.876,138.227 55.7094,138.894 53.5,139.5C 50.7612,137.769 51.0945,136.603 54.5,136C 53.9056,135.536 53.2389,135.369 52.5,135.5C 52.5,133.5 52.5,131.5 52.5,129.5 Z"/></g>
<g><path style="opacity:1" fill="#e2665a" d="M 18.5,143.5 C 19.1642,145.487 20.3308,147.154 22,148.5C 22.6667,149.5 22.6667,150.5 22,151.5C 20.3745,148.872 18.3745,146.539 16,144.5C 15.376,146.703 15.876,148.703 17.5,150.5C 16.3839,150.402 15.3839,150.902 14.5,152C 17.3166,156.314 20.3166,160.48 23.5,164.5C 22.1196,165.706 20.9529,165.373 20,163.5C 17.8322,164.629 17.3322,166.129 18.5,168C 17.9389,169.676 16.9389,171.009 15.5,172C 17.5582,173.808 17.8916,175.975 16.5,178.5C 15.8826,178.389 15.3826,178.056 15,177.5C 12.8435,165.863 12.0102,154.197 12.5,142.5C 14.3573,139.04 14.8573,135.374 14,131.5C 14.3333,131.833 14.6667,132.167 15,132.5C 15.7869,131.289 16.4536,130.289 17,129.5C 18.2613,129.759 19.2613,130.426 20,131.5C 20.8333,130.667 21.6667,129.833 22.5,129C 20.5938,127.144 19.7605,124.977 20,122.5C 22.016,125.102 24.1827,126.769 26.5,127.5C 25.5585,127.489 24.8919,127.989 24.5,129C 26.4209,130.805 27.0875,132.805 26.5,135C 24.0266,136.402 24.0266,137.902 26.5,139.5C 25.4699,139.554 24.3033,139.888 23,140.5C 21.6667,139.167 20.3333,137.833 19,136.5C 17.437,137.725 16.2703,139.225 15.5,141C 15.7483,142.749 16.7483,143.582 18.5,143.5 Z"/></g>
<g><path style="opacity:1" fill="#e82422" d="M 49.5,136.5 C 45.2574,137.681 40.924,138.348 36.5,138.5C 36.5,139.833 36.5,141.167 36.5,142.5C 35.2353,141.486 34.5687,139.986 34.5,138C 34.8333,136.5 35.1667,135 35.5,133.5C 36.3857,134.325 36.719,135.325 36.5,136.5C 40.203,136.093 43.8697,135.426 47.5,134.5C 48.7133,134.747 49.38,135.414 49.5,136.5 Z"/></g>
<g><path style="opacity:1" fill="#696969" d="M 68.5,146.5 C 64.2976,147.132 60.2976,148.132 56.5,149.5C 54.9519,149.179 54.2852,148.179 54.5,146.5C 59.7346,145.177 65.0679,144.177 70.5,143.5C 72.8778,145.53 72.2111,146.53 68.5,146.5 Z"/></g>
<g><path style="opacity:1" fill="#de221f" d="M 39.5,147.5 C 42.0379,147.493 44.5379,147.159 47,146.5C 47.8333,146.833 48.6667,147.167 49.5,147.5C 45.5363,149.88 41.2029,150.88 36.5,150.5C 36.5,151.833 36.5,153.167 36.5,154.5C 35.2353,153.486 34.5687,151.986 34.5,150C 34.8333,148.5 35.1667,147 35.5,145.5C 36.3857,146.325 36.719,147.325 36.5,148.5C 37.791,148.737 38.791,148.404 39.5,147.5 Z"/></g>
<g><path style="opacity:1" fill="#2a2a2a" d="M 68.5,146.5 C 68.762,147.978 68.4287,149.311 67.5,150.5C 66.056,149.019 65.3894,149.352 65.5,151.5C 64.4489,152.222 63.7822,153.222 63.5,154.5C 63.7828,155.289 64.2828,155.956 65,156.5C 68.1935,155.043 71.5268,154.043 75,153.5C 75.8798,156.815 74.8798,157.815 72,156.5C 68.3661,157.317 65.0328,157.984 62,158.5C 61.5172,157.552 61.3505,156.552 61.5,155.5C 62.9143,153.402 62.2476,152.402 59.5,152.5C 59.6495,151.448 59.4828,150.448 59,149.5C 58.2979,153.72 56.4646,155.054 53.5,153.5C 54.6888,152.571 56.0222,152.238 57.5,152.5C 57.7373,151.209 57.404,150.209 56.5,149.5C 60.2976,148.132 64.2976,147.132 68.5,146.5 Z"/></g>
<g><path style="opacity:1" fill="#717171" d="M 74.5,149.5 C 76.288,149.215 77.9547,149.548 79.5,150.5C 76.674,151.58 73.8407,152.58 71,153.5C 70.5172,152.552 70.3505,151.552 70.5,150.5C 72.099,150.768 73.4324,150.434 74.5,149.5 Z"/></g>
<g><path style="opacity:1" fill="#7b7b7b" d="M 65.5,151.5 C 66.9778,151.238 68.3112,151.571 69.5,152.5C 67.5814,152.614 65.5814,153.28 63.5,154.5C 63.7822,153.222 64.4489,152.222 65.5,151.5 Z"/></g>
<g><path style="opacity:1" fill="#5f5f5f" d="M 56.5,149.5 C 57.404,150.209 57.7373,151.209 57.5,152.5C 56.0222,152.238 54.6888,152.571 53.5,153.5C 56.4646,155.054 58.2979,153.72 59,149.5C 59.4828,150.448 59.6495,151.448 59.5,152.5C 62.2476,152.402 62.9143,153.402 61.5,155.5C 59.0799,155.292 56.7466,155.626 54.5,156.5C 53.479,157.002 53.3123,157.668 54,158.5C 56,157.833 58,157.167 60,156.5C 60.6172,157.449 60.4506,158.282 59.5,159C 56.9093,159.742 54.5759,160.242 52.5,160.5C 52.0759,156.318 51.7426,152.152 51.5,148C 51.8333,147.5 52.1667,147 52.5,146.5C 53.4287,147.689 53.762,149.022 53.5,150.5C 54.791,150.737 55.791,150.404 56.5,149.5 Z"/></g>
<g><path style="opacity:1" fill="#581210" d="M 47.5,155.5 C 48.0102,158.388 47.3435,160.721 45.5,162.5C 46.0654,160.048 46.7321,157.715 47.5,155.5 Z"/></g>
<g><path style="opacity:1" fill="#e4221e" d="M 47.5,155.5 C 48.7479,156.334 49.4146,157.667 49.5,159.5C 49.1667,160.833 48.8333,162.167 48.5,163.5C 43.8322,164.5 39.1656,165.5 34.5,166.5C 34.5,163.5 34.5,160.5 34.5,157.5C 36.3079,158.918 36.9746,160.918 36.5,163.5C 37.8333,163.5 39.1667,163.5 40.5,163.5C 40.2011,161.396 40.5344,159.396 41.5,157.5C 42.4519,159.045 42.7852,160.712 42.5,162.5C 43.5,162.5 44.5,162.5 45.5,162.5C 47.3435,160.721 48.0102,158.388 47.5,155.5 Z"/></g>
<g><path style="opacity:1" fill="#494949" d="M 63.5,164.5 C 64.4972,164.47 65.1639,164.97 65.5,166C 64.3047,167.533 64.3047,169.033 65.5,170.5C 64.5,171.833 63.5,171.833 62.5,170.5C 62.8028,168.471 63.1362,166.471 63.5,164.5 Z"/></g>
<g><path style="opacity:1" fill="#e14639" d="M 28.5,153.5 C 28.9284,166.497 29.2617,179.497 29.5,192.5C 28.5084,192.672 27.8417,192.338 27.5,191.5C 27.6602,189.801 27.4935,188.134 27,186.5C 26.0862,187.654 25.2529,187.487 24.5,186C 25.9135,182.265 26.9135,178.432 27.5,174.5C 26.3195,172.307 25.3195,169.974 24.5,167.5C 25.7768,166.078 25.4435,165.078 23.5,164.5C 20.3166,160.48 17.3166,156.314 14.5,152C 15.3839,150.902 16.3839,150.402 17.5,150.5C 15.876,148.703 15.376,146.703 16,144.5C 18.3745,146.539 20.3745,148.872 22,151.5C 22.6667,150.5 22.6667,149.5 22,148.5C 20.3308,147.154 19.1642,145.487 18.5,143.5C 18.8966,142.475 19.5632,142.308 20.5,143C 22.3939,144.101 23.0606,145.434 22.5,147C 23.2199,149.122 24.3866,149.622 26,148.5C 26.0995,150.653 26.9328,152.319 28.5,153.5 Z"/></g>
<g><path style="opacity:1" fill="#5d5d5d" d="M 55.5,166.5 C 56.9778,166.238 58.3112,166.571 59.5,167.5C 58.3554,168.891 58.3554,170.224 59.5,171.5C 60.9702,165.041 61.6369,165.374 61.5,172.5C 60.1667,172.5 58.8333,172.5 57.5,172.5C 57.5,171.5 57.5,170.5 57.5,169.5C 54.4017,169.413 54.0684,169.913 56.5,171C 55.2964,173.277 53.6297,173.777 51.5,172.5C 52.0253,171.808 52.6919,171.308 53.5,171C 52.6634,169.989 52.33,168.822 52.5,167.5C 53.791,167.737 54.791,167.404 55.5,166.5 Z"/></g>
<g><path style="opacity:1" fill="#e0231f" d="M 34.5,177.5 C 34.2011,175.396 34.5344,173.396 35.5,171.5C 36.1067,171.624 36.44,171.957 36.5,172.5C 36.5,173.833 36.5,175.167 36.5,176.5C 37.8221,176.67 38.9887,176.337 40,175.5C 40.2511,173.567 40.7511,171.734 41.5,170C 49.8022,167.353 51.6356,169.853 47,177.5C 46.5038,175.965 46.6705,174.465 47.5,173C 46.6667,170.5 45.1667,170 43,171.5C 42.8986,177.799 40.0652,179.799 34.5,177.5 Z"/></g>
<g><path style="opacity:1" fill="#e08271" d="M 23.5,164.5 C 25.4435,165.078 25.7768,166.078 24.5,167.5C 25.3195,169.974 26.3195,172.307 27.5,174.5C 26.1765,173.15 25.1765,173.317 24.5,175C 26.4886,183.071 24.6552,183.571 19,176.5C 18.7508,177.624 18.2508,178.624 17.5,179.5C 16.8933,179.376 16.56,179.043 16.5,178.5C 17.8916,175.975 17.5582,173.808 15.5,172C 16.9389,171.009 17.9389,169.676 18.5,168C 17.3322,166.129 17.8322,164.629 20,163.5C 20.9529,165.373 22.1196,165.706 23.5,164.5 Z"/></g>
<g><path style="opacity:1" fill="#992b2b" d="M 69.5,178.5 C 69.5,178.167 69.5,177.833 69.5,177.5C 72.1411,176.737 74.8078,176.57 77.5,177C 74.9865,178.252 72.3198,178.752 69.5,178.5 Z"/></g>
<g><path style="opacity:1" fill="#404140" d="M 69.5,177.5 C 69.5,177.833 69.5,178.167 69.5,178.5C 66.5049,178.294 63.8383,178.96 61.5,180.5C 61.5,181.167 61.1667,181.5 60.5,181.5C 60.6716,180.508 60.3382,179.842 59.5,179.5C 59.8807,178.069 60.8807,177.236 62.5,177C 64.9291,176.297 67.2625,176.463 69.5,177.5 Z"/></g>
<g><path style="opacity:1" fill="#d66d58" d="M 11.5,124.5 C 12.4896,130.31 12.8229,136.31 12.5,142.5C 12.0102,154.197 12.8435,165.863 15,177.5C 15.3826,178.056 15.8826,178.389 16.5,178.5C 16.56,179.043 16.8933,179.376 17.5,179.5C 18.2508,178.624 18.7508,177.624 19,176.5C 24.6552,183.571 26.4886,183.071 24.5,175C 25.1765,173.317 26.1765,173.15 27.5,174.5C 26.9135,178.432 25.9135,182.265 24.5,186C 25.2529,187.487 26.0862,187.654 27,186.5C 27.4935,188.134 27.6602,189.801 27.5,191.5C 25.0763,190.97 22.743,190.136 20.5,189C 17.2975,185.629 13.9641,182.462 10.5,179.5C 11.3242,176.236 11.6576,172.902 11.5,169.5C 11.5,154.5 11.5,139.5 11.5,124.5 Z"/></g>
<g><path style="opacity:0.58" fill="#bbbbbb" d="M 11.5,169.5 C 11.6576,172.902 11.3242,176.236 10.5,179.5C 11.9188,182.1 13.5854,184.6 15.5,187C 20.5299,190.847 25.8632,194.18 31.5,197C 35.4775,197.254 39.1441,196.421 42.5,194.5C 56.411,190.19 70.411,186.523 84.5,183.5C 89.9804,183.618 95.3137,182.785 100.5,181C 101.252,180.329 101.586,179.496 101.5,178.5C 101.833,178.5 102.167,178.5 102.5,178.5C 102.833,178.5 103.167,178.5 103.5,178.5C 103.5,179.167 103.5,179.833 103.5,180.5C 102.691,181.469 101.691,182.302 100.5,183C 84.803,186.206 69.1363,189.539 53.5,193C 48.2161,194.392 43.2161,196.225 38.5,198.5C 35.5,198.5 32.5,198.5 29.5,198.5C 19.5082,191.836 9.50824,185.17 -0.5,178.5C -0.5,176.833 -0.5,175.167 -0.5,173.5C 3.68214,172.442 7.68214,171.109 11.5,169.5 Z"/></g>
<g><path style="opacity:1" fill="#434343" d="M 84.5,183.5 C 70.411,186.523 56.411,190.19 42.5,194.5C 40.139,194.674 37.8056,195.007 35.5,195.5C 41.549,192.872 47.8823,190.705 54.5,189C 64.4543,186.842 74.4543,185.009 84.5,183.5 Z"/></g>
<g><path style="opacity:1" fill="#796f6d" d="M 10.5,179.5 C 13.9641,182.462 17.2975,185.629 20.5,189C 22.743,190.136 25.0763,190.97 27.5,191.5C 27.8417,192.338 28.5084,192.672 29.5,192.5C 29.5,192.833 29.5,193.167 29.5,193.5C 31.1016,195.074 33.1016,195.741 35.5,195.5C 37.8056,195.007 40.139,194.674 42.5,194.5C 39.1441,196.421 35.4775,197.254 31.5,197C 25.8632,194.18 20.5299,190.847 15.5,187C 13.5854,184.6 11.9188,182.1 10.5,179.5 Z"/></g>
<g><path style="opacity:1" fill="#c32425" d="M 42.5,186.5 C 42.9227,184.219 42.256,182.552 40.5,181.5C 40.8212,179.952 41.8212,179.285 43.5,179.5C 43.8016,182.059 43.4682,184.393 42.5,186.5 Z"/></g>
<g><path style="opacity:1" fill="#230d09" d="M 40.5,181.5 C 42.256,182.552 42.9227,184.219 42.5,186.5C 40.744,185.448 40.0773,183.781 40.5,181.5 Z"/></g>
<g><path style="opacity:1" fill="#c72927" d="M 40.5,181.5 C 40.0773,183.781 40.744,185.448 42.5,186.5C 41.791,187.404 40.791,187.737 39.5,187.5C 39.2053,185.265 39.5386,183.265 40.5,181.5 Z"/></g>
<g><path style="opacity:1" fill="#666666" d="M 101.5,178.5 C 101.586,179.496 101.252,180.329 100.5,181C 95.3137,182.785 89.9804,183.618 84.5,183.5C 90.0244,181.559 95.691,179.893 101.5,178.5 Z"/></g>
<g><path style="opacity:1" fill="#2e302e" d="M 58.5,180.5 C 56.3453,180.372 54.3453,180.872 52.5,182C 55.1922,182.43 57.8589,182.263 60.5,181.5C 58.6784,183.234 56.3451,184.234 53.5,184.5C 51.7826,183.332 51.1159,181.665 51.5,179.5C 53.1986,179.38 54.8653,179.046 56.5,178.5C 57.7133,178.747 58.38,179.414 58.5,180.5 Z"/></g>
<g><path style="opacity:1" fill="#a92022" d="M 36.5,180.5 C 37.3764,180.369 38.0431,180.702 38.5,181.5C 37.6924,183.925 36.6924,186.258 35.5,188.5C 35.1667,188.333 34.8333,188.167 34.5,188C 35.2598,186.559 35.9264,185.059 36.5,183.5C 35.6034,183.331 34.6034,182.998 33.5,182.5C 34.6016,181.824 35.6016,181.158 36.5,180.5 Z"/></g>
<g><path style="opacity:1" fill="#0d683d" d="M 59.5,179.5 C 60.3382,179.842 60.6716,180.508 60.5,181.5C 57.8589,182.263 55.1922,182.43 52.5,182C 54.3453,180.872 56.3453,180.372 58.5,180.5C 59.1667,180.5 59.5,180.167 59.5,179.5 Z"/></g>
<g><path style="opacity:1" fill="#a71d1e" d="M 46.5,178.5 C 48.8896,178.685 49.8896,180.018 49.5,182.5C 49.8213,185.512 48.488,186.845 45.5,186.5C 45.2786,183.721 45.612,181.054 46.5,178.5 Z"/></g>
<g><path style="opacity:1" fill="#42130e" d="M 46.5,180.5 C 47.5862,180.62 48.2528,181.287 48.5,182.5C 48.1667,183.167 47.8333,183.833 47.5,184.5C 46.5713,183.311 46.238,181.978 46.5,180.5 Z"/></g>
<g><path style="opacity:1" fill="#9b9b9b" d="M 69.5,178.5 C 67.1617,180.04 64.4951,180.706 61.5,180.5C 63.8383,178.96 66.5049,178.294 69.5,178.5 Z"/></g>
</svg>
