<?xml version="1.0" encoding="UTF-8"?>
<!DOCTYPE svg PUBLIC "-//W3C//DTD SVG 1.1//EN" "http://www.w3.org/Graphics/SVG/1.1/DTD/svg11.dtd">
<svg xmlns="http://www.w3.org/2000/svg" version="1.1" width="97px" height="199px" style="shape-rendering:geometricPrecision; text-rendering:geometricPrecision; image-rendering:optimizeQuality; fill-rule:evenodd; clip-rule:evenodd" xmlns:xlink="http://www.w3.org/1999/xlink">
<g><path style="opacity:1" fill="#162554" d="M 7.5,-0.5 C 34.5,-0.5 61.5,-0.5 88.5,-0.5C 89.5534,10.4743 90.22,21.4743 90.5,32.5C 90.5,34.5 89.5,35.5 87.5,35.5C 85.6883,35.2287 84.0217,34.562 82.5,33.5C 83.8064,32.0878 84.6397,30.4211 85,28.5C 85.3333,28.8333 85.6667,29.1667 86,29.5C 87.0674,28.8095 88.2341,28.3095 89.5,28C 88.7069,26.9148 88.0402,25.7481 87.5,24.5C 88.5999,20.5575 88.7666,16.5575 88,12.5C 85.4004,16.2998 81.4004,18.9664 76,20.5C 74.2445,19.4193 72.7445,18.7526 71.5,18.5C 72.6477,16.8513 73.981,15.3513 75.5,14C 75.4057,12.5778 75.0724,11.0778 74.5,9.5C 72.7295,10.0354 72.3961,10.8687 73.5,12C 68.2224,13.751 63.3891,16.251 59,19.5C 56.544,17.6787 53.7107,17.012 50.5,17.5C 49.9553,21.1716 49.6219,20.8383 49.5,16.5C 46.5525,16.7771 43.7191,16.4438 41,15.5C 39.1653,17.4494 37.9986,19.7827 37.5,22.5C 36.218,20.8208 35.218,18.9874 34.5,17C 27.543,15.7193 20.543,14.886 13.5,14.5C 14.1667,17.1667 14.8333,19.8333 15.5,22.5C 18.838,22.8909 19.838,21.7243 18.5,19C 18.6135,17.7202 19.2801,16.8869 20.5,16.5C 22.6414,17.8076 24.6414,19.3076 26.5,21C 25.1068,22.1711 24.2735,23.6711 24,25.5C 21.8896,23.1623 19.7229,23.329 17.5,26C 22.6319,34.9843 26.6319,44.4843 29.5,54.5C 28.4229,56.7294 27.7563,59.0628 27.5,61.5C 26.5,61.5 25.5,61.5 24.5,61.5C 24.2977,52.707 22.4644,44.3737 19,36.5C 16.0218,33.8609 13.8551,30.6942 12.5,27C 11.2068,26.51 9.87344,26.3433 8.5,26.5C 8.64271,24.7376 8.30937,23.0709 7.5,21.5C 9.85409,19.7539 10.8541,17.4206 10.5,14.5C 8.4458,14.3653 6.77914,15.032 5.5,16.5C 6.02105,10.8102 6.68772,5.1435 7.5,-0.5 Z"/></g>
<g><path style="opacity:1" fill="#132251" d="M 87.5,35.5 C 86.1667,37.5 84.5,39.1667 82.5,40.5C 81.448,40.6495 80.448,40.4828 79.5,40C 75.5603,36.5547 72.2269,32.7214 69.5,28.5C 68.086,29.624 66.586,30.624 65,31.5C 63.2041,30.233 61.3707,30.233 59.5,31.5C 58.3523,33.1487 57.019,34.6487 55.5,36C 58.4912,38.2738 61.4912,40.6072 64.5,43C 61.6781,46.2833 60.1781,50.1166 60,54.5C 55.0446,55.9114 50.5446,54.9114 46.5,51.5C 44.1065,52.0948 42.2732,53.4281 41,55.5C 40.2825,54.5494 39.4491,54.3828 38.5,55C 37.6699,56.7467 36.6699,58.4134 35.5,60C 38.4076,61.6724 41.4076,63.3391 44.5,65C 43.7079,67.3361 42.3746,67.8361 40.5,66.5C 36.1368,67.1675 31.8035,67.8342 27.5,68.5C 26.5,68.5 25.5,68.5 24.5,68.5C 24.2962,71.5176 23.9629,74.5176 23.5,77.5C 27.3123,78.3238 31.3123,78.8238 35.5,79C 32.9963,79.6976 30.663,80.5309 28.5,81.5C 28.4125,84.5983 28.9125,84.9316 30,82.5C 32.8037,84.3444 35.9703,85.0111 39.5,84.5C 39.8333,84.5 40.1667,84.5 40.5,84.5C 38.7213,86.0283 36.7213,87.3616 34.5,88.5C 29.2621,87.7333 27.2621,89.7333 28.5,94.5C 28.4142,95.4959 28.7476,96.3292 29.5,97C 26.9402,96.5624 24.4402,96.729 22,97.5C 20.4388,94.341 20.2721,91.1743 21.5,88C 20.0344,84.2004 19.0344,80.3671 18.5,76.5C 17.6519,73.1125 15.6519,70.7791 12.5,69.5C 10.1169,67.6418 7.45022,66.3084 4.5,65.5C 4.5,64.8333 4.16667,64.5 3.5,64.5C 2.60908,63.7387 1.94242,62.7387 1.5,61.5C 2.34638,57.8822 2.67972,54.2155 2.5,50.5C 3.23581,39.142 4.23581,27.8087 5.5,16.5C 6.77914,15.032 8.4458,14.3653 10.5,14.5C 10.8541,17.4206 9.85409,19.7539 7.5,21.5C 8.30937,23.0709 8.64271,24.7376 8.5,26.5C 9.87344,26.3433 11.2068,26.51 12.5,27C 13.8551,30.6942 16.0218,33.8609 19,36.5C 22.4644,44.3737 24.2977,52.707 24.5,61.5C 25.5,61.5 26.5,61.5 27.5,61.5C 27.7563,59.0628 28.4229,56.7294 29.5,54.5C 26.6319,44.4843 22.6319,34.9843 17.5,26C 19.7229,23.329 21.8896,23.1623 24,25.5C 24.2735,23.6711 25.1068,22.1711 26.5,21C 24.6414,19.3076 22.6414,17.8076 20.5,16.5C 19.2801,16.8869 18.6135,17.7202 18.5,19C 19.838,21.7243 18.838,22.8909 15.5,22.5C 14.8333,19.8333 14.1667,17.1667 13.5,14.5C 20.543,14.886 27.543,15.7193 34.5,17C 35.218,18.9874 36.218,20.8208 37.5,22.5C 37.9986,19.7827 39.1653,17.4494 41,15.5C 43.7191,16.4438 46.5525,16.7771 49.5,16.5C 49.6219,20.8383 49.9553,21.1716 50.5,17.5C 53.7107,17.012 56.544,17.6787 59,19.5C 63.3891,16.251 68.2224,13.751 73.5,12C 72.3961,10.8687 72.7295,10.0354 74.5,9.5C 75.0724,11.0778 75.4057,12.5778 75.5,14C 73.981,15.3513 72.6477,16.8513 71.5,18.5C 72.7445,18.7526 74.2445,19.4193 76,20.5C 81.4004,18.9664 85.4004,16.2998 88,12.5C 88.7666,16.5575 88.5999,20.5575 87.5,24.5C 88.0402,25.7481 88.7069,26.9148 89.5,28C 88.2341,28.3095 87.0674,28.8095 86,29.5C 85.6667,29.1667 85.3333,28.8333 85,28.5C 84.6397,30.4211 83.8064,32.0878 82.5,33.5C 84.0217,34.562 85.6883,35.2287 87.5,35.5 Z"/></g>
<g><path style="opacity:1" fill="#172654" d="M 82.5,40.5 C 81.2653,43.3013 79.7653,45.9679 78,48.5C 77.3333,52.5 77.3333,56.5 78,60.5C 78.2784,61.4158 78.7784,62.0825 79.5,62.5C 82.0105,69.0101 86.6771,73.0101 93.5,74.5C 93.8333,74.5 94.1667,74.5 94.5,74.5C 94.5,75.5 94.5,76.5 94.5,77.5C 94.5,83.1667 94.5,88.8333 94.5,94.5C 89.8193,90.3803 84.486,87.3803 78.5,85.5C 76.597,85.2041 74.9303,84.5375 73.5,83.5C 73.9382,83.5654 74.2716,83.3988 74.5,83C 73.6433,82.3109 72.9767,81.4776 72.5,80.5C 75.068,78.0021 75.068,75.6688 72.5,73.5C 72.938,69.0917 70.938,67.4251 66.5,68.5C 66.2971,77.6354 65.6304,77.6354 64.5,68.5C 62.8333,68.5 61.1667,68.5 59.5,68.5C 60.0916,71.1272 60.4249,73.7938 60.5,76.5C 60.1667,76.5 59.8333,76.5 59.5,76.5C 58.7347,73.9039 58.4013,71.2372 58.5,68.5C 56.1667,68.5 53.8333,68.5 51.5,68.5C 51.5,67.1667 51.5,65.8333 51.5,64.5C 49.5,64.5 47.5,64.5 45.5,64.5C 45.3215,67.2165 44.8215,69.8832 44,72.5C 43.51,71.2068 43.3433,69.8734 43.5,68.5C 42.5,68.5 41.5,68.5 40.5,68.5C 40.1667,73.8333 39.8333,73.8333 39.5,68.5C 38.5,68.5 37.5,68.5 36.5,68.5C 36.1667,68.5 35.8333,68.5 35.5,68.5C 31.0765,67.9865 28.7431,69.9865 28.5,74.5C 27.5344,72.604 27.2011,70.604 27.5,68.5C 31.8035,67.8342 36.1368,67.1675 40.5,66.5C 42.3746,67.8361 43.7079,67.3361 44.5,65C 41.4076,63.3391 38.4076,61.6724 35.5,60C 36.6699,58.4134 37.6699,56.7467 38.5,55C 39.4491,54.3828 40.2825,54.5494 41,55.5C 42.2732,53.4281 44.1065,52.0948 46.5,51.5C 50.5446,54.9114 55.0446,55.9114 60,54.5C 60.1781,50.1166 61.6781,46.2833 64.5,43C 61.4912,40.6072 58.4912,38.2738 55.5,36C 57.019,34.6487 58.3523,33.1487 59.5,31.5C 61.3707,30.233 63.2041,30.233 65,31.5C 66.586,30.624 68.086,29.624 69.5,28.5C 72.2269,32.7214 75.5603,36.5547 79.5,40C 80.448,40.4828 81.448,40.6495 82.5,40.5 Z"/></g>
<g><path style="opacity:1" fill="#b73029" d="M 91.5,37.5 C 91.5,37.8333 91.5,38.1667 91.5,38.5C 87.8182,41.3715 86.1516,45.2048 86.5,50C 86.4851,55.4568 88.1518,60.2901 91.5,64.5C 91.5654,64.9382 91.3988,65.2716 91,65.5C 83.2471,59.1287 81.5804,51.4621 86,42.5C 87.0757,39.921 88.909,38.2543 91.5,37.5 Z"/></g>
<g><path style="opacity:1" fill="#1e2852" d="M 91.5,38.5 C 92.0083,43.2158 92.8416,47.8824 94,52.5C 94.4993,57.4889 94.6659,62.4889 94.5,67.5C 93.2719,66.6935 92.2719,65.6935 91.5,64.5C 88.1518,60.2901 86.4851,55.4568 86.5,50C 86.1516,45.2048 87.8182,41.3715 91.5,38.5 Z"/></g>
<g><path style="opacity:1" fill="#641d3b" d="M 90.5,32.5 C 91.4511,33.9187 91.7845,35.5853 91.5,37.5C 88.909,38.2543 87.0757,39.921 86,42.5C 81.5804,51.4621 83.2471,59.1287 91,65.5C 91.3988,65.2716 91.5654,64.9382 91.5,64.5C 92.2719,65.6935 93.2719,66.6935 94.5,67.5C 94.5,69.8333 94.5,72.1667 94.5,74.5C 94.1667,74.5 93.8333,74.5 93.5,74.5C 93.719,73.325 93.3857,72.325 92.5,71.5C 87.0084,69.8436 82.8417,66.5103 80,61.5C 79.6012,61.7284 79.4346,62.0618 79.5,62.5C 78.7784,62.0825 78.2784,61.4158 78,60.5C 77.3333,56.5 77.3333,52.5 78,48.5C 79.7653,45.9679 81.2653,43.3013 82.5,40.5C 84.5,39.1667 86.1667,37.5 87.5,35.5C 89.5,35.5 90.5,34.5 90.5,32.5 Z"/></g>
<g><path style="opacity:1" fill="#dbdbe0" d="M 27.5,68.5 C 27.2011,70.604 27.5344,72.604 28.5,74.5C 28.7431,69.9865 31.0765,67.9865 35.5,68.5C 35.8174,71.5719 35.4841,74.5719 34.5,77.5C 30.9532,77.22 27.2865,77.22 23.5,77.5C 23.9629,74.5176 24.2962,71.5176 24.5,68.5C 25.5,68.5 26.5,68.5 27.5,68.5 Z"/></g>
<g><path style="opacity:1" fill="#d9d9de" d="M 59.5,76.5 C 58.0813,77.4511 56.4147,77.7845 54.5,77.5C 54.7989,75.396 54.4656,73.396 53.5,71.5C 53.0798,73.326 53.0798,75.326 53.5,77.5C 51.4305,77.5514 49.5971,76.8847 48,75.5C 46.6998,76.7073 45.1998,77.3739 43.5,77.5C 43.5489,72.4612 42.8823,72.2945 41.5,77C 39.8659,77.4935 38.1992,77.6602 36.5,77.5C 36.5,74.5 36.5,71.5 36.5,68.5C 37.5,68.5 38.5,68.5 39.5,68.5C 39.8333,73.8333 40.1667,73.8333 40.5,68.5C 41.5,68.5 42.5,68.5 43.5,68.5C 43.3433,69.8734 43.51,71.2068 44,72.5C 44.8215,69.8832 45.3215,67.2165 45.5,64.5C 47.5,64.5 49.5,64.5 51.5,64.5C 51.5,65.8333 51.5,67.1667 51.5,68.5C 53.8333,68.5 56.1667,68.5 58.5,68.5C 58.4013,71.2372 58.7347,73.9039 59.5,76.5 Z"/></g>
<g><path style="opacity:1" fill="#901e24" d="M 93.5,74.5 C 86.6771,73.0101 82.0105,69.0101 79.5,62.5C 79.4346,62.0618 79.6012,61.7284 80,61.5C 82.8417,66.5103 87.0084,69.8436 92.5,71.5C 93.3857,72.325 93.719,73.325 93.5,74.5 Z"/></g>
<g><path style="opacity:1" fill="#606481" d="M 47.5,69.5 C 49.332,70.1405 49.6653,71.1405 48.5,72.5C 47.6143,71.675 47.281,70.675 47.5,69.5 Z"/></g>
<g><path style="opacity:1" fill="#d6311e" d="M 4.5,65.5 C 7.45022,66.3084 10.1169,67.6418 12.5,69.5C 14.968,74.3018 15.1347,79.3018 13,84.5C 12.1618,85.999 11.3285,86.3324 10.5,85.5C 10.5,85.1667 10.5,84.8333 10.5,84.5C 11.6378,81.6965 11.8045,78.6965 11,75.5C 8.51223,73.2567 5.84556,71.2567 3,69.5C 2.15579,67.5372 2.65579,66.2039 4.5,65.5 Z"/></g>
<g><path style="opacity:1" fill="#9c1f1e" d="M 3.5,64.5 C 4.16667,64.5 4.5,64.8333 4.5,65.5C 2.65579,66.2039 2.15579,67.5372 3,69.5C 5.84556,71.2567 8.51223,73.2567 11,75.5C 11.8045,78.6965 11.6378,81.6965 10.5,84.5C 10.209,80.2234 8.20895,77.2234 4.5,75.5C 1.08841,71.9215 0.755079,68.2549 3.5,64.5 Z"/></g>
<g><path style="opacity:1" fill="#d3d4da" d="M 72.5,73.5 C 72.5394,74.5832 72.8728,75.5832 73.5,76.5C 73,76.8333 72.5,77.1667 72,77.5C 68.1392,77.6484 64.3059,77.3151 60.5,76.5C 60.4249,73.7938 60.0916,71.1272 59.5,68.5C 61.1667,68.5 62.8333,68.5 64.5,68.5C 65.6304,77.6354 66.2971,77.6354 66.5,68.5C 70.938,67.4251 72.938,69.0917 72.5,73.5 Z"/></g>
<g><path style="opacity:1" fill="#671f3d" d="M 12.5,69.5 C 15.6519,70.7791 17.6519,73.1125 18.5,76.5C 18.9651,80.7924 18.1318,84.7924 16,88.5C 12.4864,91.5001 8.6531,93.8334 4.5,95.5C 3.5,95.5 2.5,95.5 1.5,95.5C 1.46765,93.3812 2.46765,92.0478 4.5,91.5C 7.39539,90.3596 9.39539,88.3596 10.5,85.5C 11.3285,86.3324 12.1618,85.999 13,84.5C 15.1347,79.3018 14.968,74.3018 12.5,69.5 Z"/></g>
<g><path style="opacity:1" fill="#646c87" d="M 28.5,81.5 C 32.0183,82.1049 35.685,82.1049 39.5,81.5C 39.5,82.5 39.5,83.5 39.5,84.5C 35.9703,85.0111 32.8037,84.3444 30,82.5C 28.9125,84.9316 28.4125,84.5983 28.5,81.5 Z"/></g>
<g><path style="opacity:1" fill="#1f2a57" d="M 35.5,68.5 C 35.8333,68.5 36.1667,68.5 36.5,68.5C 36.5,71.5 36.5,74.5 36.5,77.5C 38.1992,77.6602 39.8659,77.4935 41.5,77C 42.8823,72.2945 43.5489,72.4612 43.5,77.5C 45.1998,77.3739 46.6998,76.7073 48,75.5C 49.5971,76.8847 51.4305,77.5514 53.5,77.5C 53.0798,75.326 53.0798,73.326 53.5,71.5C 54.4656,73.396 54.7989,75.396 54.5,77.5C 56.4147,77.7845 58.0813,77.4511 59.5,76.5C 59.8333,76.5 60.1667,76.5 60.5,76.5C 64.3059,77.3151 68.1392,77.6484 72,77.5C 72.5,77.1667 73,76.8333 73.5,76.5C 72.8728,75.5832 72.5394,74.5832 72.5,73.5C 75.068,75.6688 75.068,78.0021 72.5,80.5C 72.9767,81.4776 73.6433,82.3109 74.5,83C 74.2716,83.3988 73.9382,83.5654 73.5,83.5C 72.7611,83.369 72.0944,83.5357 71.5,84C 74.3553,86.0308 77.022,88.1975 79.5,90.5C 83.9724,95.2423 86.3057,100.909 86.5,107.5C 86.1218,109.921 85.4552,112.254 84.5,114.5C 83.5,114.833 82.8333,115.5 82.5,116.5C 81.8333,116.5 81.5,116.833 81.5,117.5C 79.0462,118.227 76.7128,119.227 74.5,120.5C 72.2143,120.405 70.2143,119.738 68.5,118.5C 69.2389,118.631 69.9056,118.464 70.5,118C 68.4078,117.047 68.0745,115.714 69.5,114C 67.7356,112.331 65.7356,111.164 63.5,110.5C 65.756,109.579 66.756,107.912 66.5,105.5C 71.0685,105.917 72.5685,103.917 71,99.5C 68.4485,97.9797 66.2818,98.3131 64.5,100.5C 64.1667,100.5 63.8333,100.5 63.5,100.5C 62.8478,99.2749 61.6811,98.6083 60,98.5C 58.8333,98.8333 57.6667,99.1667 56.5,99.5C 58.1045,101.179 58.7711,103.179 58.5,105.5C 59.791,105.737 60.791,105.404 61.5,104.5C 62.0431,104.56 62.3764,104.893 62.5,105.5C 61.6667,105.833 60.8333,106.167 60,106.5C 58.3933,105.926 56.8933,105.26 55.5,104.5C 55.2882,102.616 54.2882,101.283 52.5,100.5C 53.3966,100.331 54.3966,99.9976 55.5,99.5C 53.9547,98.5481 52.288,98.2148 50.5,98.5C 50.244,100.912 51.244,102.579 53.5,103.5C 52.7261,104.711 51.8928,104.711 51,103.5C 50.5357,104.094 50.369,104.761 50.5,105.5C 49.8333,104.833 49.1667,104.167 48.5,103.5C 48.2865,101.856 48.6198,100.356 49.5,99C 48.1667,98.3333 46.8333,98.3333 45.5,99C 46.7472,100.494 46.7472,101.994 45.5,103.5C 44.5481,101.955 44.2148,100.288 44.5,98.5C 43.209,98.2627 42.209,98.596 41.5,99.5C 41.1667,99.5 40.8333,99.5 40.5,99.5C 38.6208,98.6586 36.6208,98.3253 34.5,98.5C 33.5525,97.0221 32.2191,96.0221 30.5,95.5C 35.8333,94.8333 35.8333,94.1667 30.5,93.5C 30.5,92.1667 30.5,90.8333 30.5,89.5C 31.8221,89.33 32.9887,89.6634 34,90.5C 34.4643,89.9056 34.631,89.2389 34.5,88.5C 36.7213,87.3616 38.7213,86.0283 40.5,84.5C 40.1667,84.5 39.8333,84.5 39.5,84.5C 39.5,83.5 39.5,82.5 39.5,81.5C 35.685,82.1049 32.0183,82.1049 28.5,81.5C 30.663,80.5309 32.9963,79.6976 35.5,79C 31.3123,78.8238 27.3123,78.3238 23.5,77.5C 27.2865,77.22 30.9532,77.22 34.5,77.5C 35.4841,74.5719 35.8174,71.5719 35.5,68.5 Z"/></g>
<g><path style="opacity:1" fill="#989eaf" d="M 40.5,84.5 C 40.6395,82.663 41.3061,82.3296 42.5,83.5C 42.0431,84.2975 41.3764,84.6309 40.5,84.5 Z"/></g>
<g><path style="opacity:1" fill="#535b7b" d="M 44.5,81.5 C 47.2384,82.2372 49.905,82.2372 52.5,81.5C 56.9069,83.3828 61.4069,83.3828 66,81.5C 66.4828,82.448 66.6495,83.448 66.5,84.5C 59.1667,84.5 51.8333,84.5 44.5,84.5C 44.5,83.5 44.5,82.5 44.5,81.5 Z"/></g>
<g><path style="opacity:1" fill="#1b214d" d="M 4.5,75.5 C 8.20895,77.2234 10.209,80.2234 10.5,84.5C 10.5,84.8333 10.5,85.1667 10.5,85.5C 9.39539,88.3596 7.39539,90.3596 4.5,91.5C 3.53404,86.0033 3.53404,80.67 4.5,75.5 Z"/></g>
<g><path style="opacity:1" fill="#182352" d="M 18.5,76.5 C 19.0344,80.3671 20.0344,84.2004 21.5,88C 20.2721,91.1743 20.4388,94.341 22,97.5C 24.4402,96.729 26.9402,96.5624 29.5,97C 28.7476,96.3292 28.4142,95.4959 28.5,94.5C 29.1667,94.8333 29.8333,95.1667 30.5,95.5C 32.2191,96.0221 33.5525,97.0221 34.5,98.5C 32.0786,104.419 34.0786,106.752 40.5,105.5C 40.5,104.5 40.5,103.5 40.5,102.5C 40.5,101.833 40.5,101.167 40.5,100.5C 40.5,100.167 40.5,99.8333 40.5,99.5C 40.8333,99.5 41.1667,99.5 41.5,99.5C 40.5071,104.675 42.5071,106.509 47.5,105C 48.056,104.617 48.3893,104.117 48.5,103.5C 49.1667,104.167 49.8333,104.833 50.5,105.5C 52.4147,105.784 54.0813,105.451 55.5,104.5C 56.8933,105.26 58.3933,105.926 60,106.5C 60.8333,106.167 61.6667,105.833 62.5,105.5C 62.3764,104.893 62.0431,104.56 61.5,104.5C 61.6941,100.995 62.6941,100.662 64.5,103.5C 64.8333,104.5 65.5,105.167 66.5,105.5C 66.756,107.912 65.756,109.579 63.5,110.5C 65.7356,111.164 67.7356,112.331 69.5,114C 68.0745,115.714 68.4078,117.047 70.5,118C 69.9056,118.464 69.2389,118.631 68.5,118.5C 65.0445,117.404 61.5445,116.404 58,115.5C 54.5503,115.804 52.0503,117.471 50.5,120.5C 49.0236,118.568 47.3569,118.235 45.5,119.5C 43.9611,120.767 42.2944,121.767 40.5,122.5C 39.2058,123.29 38.0391,124.29 37,125.5C 35.0215,131.87 36.8548,136.537 42.5,139.5C 43.9448,141.063 45.6115,142.396 47.5,143.5C 47.5,145.167 47.5,146.833 47.5,148.5C 46.5,148.167 45.8333,147.5 45.5,146.5C 44.7974,144.284 43.4641,142.451 41.5,141C 32.904,137.294 25.7373,131.794 20,124.5C 19.3333,122.5 19.3333,120.5 20,118.5C 22.9276,114.619 26.7609,112.119 31.5,111C 30.7562,109.961 29.7562,109.461 28.5,109.5C 25.3962,108.225 22.3962,108.225 19.5,109.5C 10.1965,109.635 6.02984,114.301 7,123.5C 7.88343,126.102 9.38343,128.269 11.5,130C 18.4737,134.103 25.807,137.437 33.5,140C 32.552,140.483 31.552,140.649 30.5,140.5C 20.7803,139.715 12.447,136.048 5.5,129.5C 5.10164,118.278 4.76831,106.945 4.5,95.5C 8.6531,93.8334 12.4864,91.5001 16,88.5C 18.1318,84.7924 18.9651,80.7924 18.5,76.5 Z"/></g>
<g><path style="opacity:1" fill="#52172d" d="M 78.5,85.5 C 84.486,87.3803 89.8193,90.3803 94.5,94.5C 94.2487,100.892 94.582,107.225 95.5,113.5C 94.8902,114.391 94.5569,115.391 94.5,116.5C 93.7095,117.401 92.7095,118.068 91.5,118.5C 93.5446,111.733 94.0446,104.733 93,97.5C 91.8589,95.3911 90.3589,93.5578 88.5,92C 84.9708,89.9397 81.6374,87.773 78.5,85.5 Z"/></g>
<g><path style="opacity:1" fill="#cfd1d7" d="M 63.5,88.5 C 64.675,88.281 65.675,88.6143 66.5,89.5C 67.1667,91.1667 67.8333,92.8333 68.5,94.5C 66.9928,95.7388 65.8261,95.4054 65,93.5C 64.1739,95.4054 63.0072,95.7388 61.5,94.5C 62.3721,92.5504 63.0388,90.5504 63.5,88.5 Z"/></g>
<g><path style="opacity:1" fill="#d3d4da" d="M 36.5,88.5 C 38.5,88.5 40.5,88.5 42.5,88.5C 42.5792,89.9305 42.2458,91.2638 41.5,92.5C 41.8333,93.5 42.5,94.1667 43.5,94.5C 44.4656,92.604 44.7989,90.604 44.5,88.5C 46.288,88.2148 47.9547,88.5481 49.5,89.5C 48.6034,89.6691 47.6034,90.0024 46.5,90.5C 48.9913,91.5407 48.9913,92.3741 46.5,93C 47.624,93.2492 48.624,93.7492 49.5,94.5C 48,94.8333 46.5,95.1667 45,95.5C 43.0194,95.3708 41.3528,94.7042 40,93.5C 39.2904,94.9733 38.1238,95.6399 36.5,95.5C 36.5,93.1667 36.5,90.8333 36.5,88.5 Z"/></g>
<g><path style="opacity:1" fill="#525573" d="M 38.5,89.5 C 40.337,89.6395 40.6704,90.3061 39.5,91.5C 38.7025,91.0431 38.3691,90.3764 38.5,89.5 Z"/></g>
<g><path style="opacity:1" fill="#bfc1cb" d="M 51.5,88.5 C 53.9115,88.1367 55.4115,89.1367 56,91.5C 56.4828,90.552 56.6495,89.552 56.5,88.5C 57.8734,88.3433 59.2068,88.51 60.5,89C 59.1667,91 59.1667,93 60.5,95C 57.4581,94.4771 54.4581,94.6438 51.5,95.5C 51.5,93.1667 51.5,90.8333 51.5,88.5 Z"/></g>
<g><path style="opacity:1" fill="#bfc1cc" d="M 34.5,88.5 C 34.631,89.2389 34.4643,89.9056 34,90.5C 32.9887,89.6634 31.8221,89.33 30.5,89.5C 30.5,90.8333 30.5,92.1667 30.5,93.5C 35.8333,94.1667 35.8333,94.8333 30.5,95.5C 29.8333,95.1667 29.1667,94.8333 28.5,94.5C 27.2621,89.7333 29.2621,87.7333 34.5,88.5 Z"/></g>
<g><path style="opacity:1" fill="#941d1b" d="M 73.5,83.5 C 74.9303,84.5375 76.597,85.2041 78.5,85.5C 81.6374,87.773 84.9708,89.9397 88.5,92C 90.3589,93.5578 91.8589,95.3911 93,97.5C 94.0446,104.733 93.5446,111.733 91.5,118.5C 91.0269,119.906 90.0269,120.573 88.5,120.5C 90.0718,116.72 88.7385,114.72 84.5,114.5C 85.4552,112.254 86.1218,109.921 86.5,107.5C 88.6687,100.011 86.3353,94.344 79.5,90.5C 77.022,88.1975 74.3553,86.0308 71.5,84C 72.0944,83.5357 72.7611,83.369 73.5,83.5 Z"/></g>
<g><path style="opacity:1" fill="#d7d9df" d="M 63.5,100.5 C 62.5041,100.586 61.6708,100.252 61,99.5C 60.2204,101.387 60.3871,103.054 61.5,104.5C 60.791,105.404 59.791,105.737 58.5,105.5C 58.7711,103.179 58.1045,101.179 56.5,99.5C 57.6667,99.1667 58.8333,98.8333 60,98.5C 61.6811,98.6083 62.8478,99.2749 63.5,100.5 Z"/></g>
<g><path style="opacity:1" fill="#cdd0d7" d="M 34.5,98.5 C 36.6208,98.3253 38.6208,98.6586 40.5,99.5C 40.5,99.8333 40.5,100.167 40.5,100.5C 38.8333,100.5 37.1667,100.5 35.5,100.5C 35.8251,104.833 37.4918,105.5 40.5,102.5C 40.5,103.5 40.5,104.5 40.5,105.5C 34.0786,106.752 32.0786,104.419 34.5,98.5 Z"/></g>
<g><path style="opacity:1" fill="#5b607f" d="M 40.5,100.5 C 40.5,101.167 40.5,101.833 40.5,102.5C 37.4918,105.5 35.8251,104.833 35.5,100.5C 37.1667,100.5 38.8333,100.5 40.5,100.5 Z"/></g>
<g><path style="opacity:0.808" fill="#5f6074" d="M 94.5,77.5 C 95.1667,85.8333 95.8333,94.1667 96.5,102.5C 96.5,106.167 96.5,109.833 96.5,113.5C 96.1667,113.5 95.8333,113.5 95.5,113.5C 94.582,107.225 94.2487,100.892 94.5,94.5C 94.5,88.8333 94.5,83.1667 94.5,77.5 Z"/></g>
<g><path style="opacity:1" fill="#a8adbd" d="M 24.5,99.5 C 25.9464,98.3871 27.6131,98.2204 29.5,99C 25.5,100 25.5,101 29.5,102C 25.7351,103.377 26.0684,104.377 30.5,105C 28.8659,105.494 27.1992,105.66 25.5,105.5C 25.7947,103.265 25.4614,101.265 24.5,99.5 Z"/></g>
<g><path style="opacity:1" fill="#656c86" d="M 63.5,100.5 C 63.8333,100.5 64.1667,100.5 64.5,100.5C 64.5,101.5 64.5,102.5 64.5,103.5C 62.6941,100.662 61.6941,100.995 61.5,104.5C 60.3871,103.054 60.2204,101.387 61,99.5C 61.6708,100.252 62.5041,100.586 63.5,100.5 Z"/></g>
<g><path style="opacity:1" fill="#6b1e3a" d="M 79.5,90.5 C 86.3353,94.344 88.6687,100.011 86.5,107.5C 86.3057,100.909 83.9724,95.2423 79.5,90.5 Z"/></g>
<g><path style="opacity:1" fill="#c7c9d2" d="M 66.5,105.5 C 65.5,105.167 64.8333,104.5 64.5,103.5C 64.5,102.5 64.5,101.5 64.5,100.5C 66.2818,98.3131 68.4485,97.9797 71,99.5C 72.5685,103.917 71.0685,105.917 66.5,105.5 Z"/></g>
<g><path style="opacity:1" fill="#122453" d="M 66.5,100.5 C 67.5,100.5 68.5,100.5 69.5,100.5C 69.5,101.5 69.5,102.5 69.5,103.5C 68.5,103.5 67.5,103.5 66.5,103.5C 66.5,102.5 66.5,101.5 66.5,100.5 Z"/></g>
<g><path style="opacity:1" fill="#b8bbc5" d="M 48.5,103.5 C 48.3893,104.117 48.056,104.617 47.5,105C 42.5071,106.509 40.5071,104.675 41.5,99.5C 42.209,98.596 43.209,98.2627 44.5,98.5C 44.2148,100.288 44.5481,101.955 45.5,103.5C 46.7472,101.994 46.7472,100.494 45.5,99C 46.8333,98.3333 48.1667,98.3333 49.5,99C 48.6198,100.356 48.2865,101.856 48.5,103.5 Z"/></g>
<g><path style="opacity:1" fill="#d2d4da" d="M 55.5,104.5 C 54.0813,105.451 52.4147,105.784 50.5,105.5C 50.369,104.761 50.5357,104.094 51,103.5C 51.8928,104.711 52.7261,104.711 53.5,103.5C 51.244,102.579 50.244,100.912 50.5,98.5C 52.288,98.2148 53.9547,98.5481 55.5,99.5C 54.3966,99.9976 53.3966,100.331 52.5,100.5C 54.2882,101.283 55.2882,102.616 55.5,104.5 Z"/></g>
<g><path style="opacity:1" fill="#121936" d="M 2.5,50.5 C 2.67972,54.2155 2.34638,57.8822 1.5,61.5C 1.94242,62.7387 2.60908,63.7387 3.5,64.5C 0.755079,68.2549 1.08841,71.9215 4.5,75.5C 3.53404,80.67 3.53404,86.0033 4.5,91.5C 2.46765,92.0478 1.46765,93.3812 1.5,95.5C 2.5,95.5 3.5,95.5 4.5,95.5C 4.76831,106.945 5.10164,118.278 5.5,129.5C 4.83333,128.833 4.16667,128.167 3.5,127.5C 2.89459,125.519 1.89459,125.185 0.5,126.5C 0.737305,125.209 0.403972,124.209 -0.5,123.5C -0.5,104.5 -0.5,85.5 -0.5,66.5C 0.354713,61.1438 1.35471,55.8105 2.5,50.5 Z"/></g>
<g><path style="opacity:1" fill="#535a7c" d="M 49.5,113.5 C 52.1667,112.5 52.1667,111.5 49.5,110.5C 53.3043,108.187 57.3043,108.02 61.5,110C 62.9295,111.88 62.5962,113.38 60.5,114.5C 56.8049,113.794 53.1382,113.461 49.5,113.5 Z"/></g>
<g><path style="opacity:1" fill="#a4a9b6" d="M 49.5,110.5 C 52.1667,111.5 52.1667,112.5 49.5,113.5C 48.8333,113.5 48.1667,113.5 47.5,113.5C 45.2667,113.656 42.9334,113.322 40.5,112.5C 41.7348,112.279 42.7348,111.612 43.5,110.5C 44.1924,111.025 44.6924,111.692 45,112.5C 46.049,110.893 47.549,110.227 49.5,110.5 Z"/></g>
<g><path style="opacity:1" fill="#686f8a" d="M 40.5,112.5 C 42.9334,113.322 45.2667,113.656 47.5,113.5C 43.8498,114.348 40.1832,114.681 36.5,114.5C 34.7172,113.652 34.2172,112.319 35,110.5C 36.5333,110.056 38.0333,109.723 39.5,109.5C 40.3857,110.325 40.719,111.325 40.5,112.5 Z"/></g>
<g><path style="opacity:1" fill="#651d3c" d="M 19.5,109.5 C 10.2023,115.894 10.2023,122.561 19.5,129.5C 19.8333,129.333 20.1667,129.167 20.5,129C 13.4948,122.749 13.8281,117.083 21.5,112C 24.0037,111.302 26.337,110.469 28.5,109.5C 29.7562,109.461 30.7562,109.961 31.5,111C 26.7609,112.119 22.9276,114.619 20,118.5C 19.3333,120.5 19.3333,122.5 20,124.5C 25.7373,131.794 32.904,137.294 41.5,141C 43.4641,142.451 44.7974,144.284 45.5,146.5C 45.1667,146.5 44.8333,146.5 44.5,146.5C 43.5084,146.672 42.8417,146.338 42.5,145.5C 42.9382,145.565 43.2716,145.399 43.5,145C 39.4812,142.308 35.1478,140.808 30.5,140.5C 31.552,140.649 32.552,140.483 33.5,140C 25.807,137.437 18.4737,134.103 11.5,130C 9.38343,128.269 7.88343,126.102 7,123.5C 6.02984,114.301 10.1965,109.635 19.5,109.5 Z"/></g>
<g><path style="opacity:1" fill="#a02529" d="M 28.5,109.5 C 26.337,110.469 24.0037,111.302 21.5,112C 13.8281,117.083 13.4948,122.749 20.5,129C 20.1667,129.167 19.8333,129.333 19.5,129.5C 10.2023,122.561 10.2023,115.894 19.5,109.5C 22.3962,108.225 25.3962,108.225 28.5,109.5 Z"/></g>
<g><path style="opacity:1" fill="#c4c2c2" d="M 76.5,123.5 C 75.8784,126.776 73.8784,128.109 70.5,127.5C 67.2513,125.972 63.918,124.639 60.5,123.5C 60.2907,121.286 61.124,119.619 63,118.5C 67.4665,120.319 71.9665,121.986 76.5,123.5 Z"/></g>
<g><path style="opacity:1" fill="#9d2f2f" d="M 81.5,117.5 C 80.5,119.167 79.1667,120.5 77.5,121.5C 76.209,121.737 75.209,121.404 74.5,120.5C 76.7128,119.227 79.0462,118.227 81.5,117.5 Z"/></g>
<g><path style="opacity:1" fill="#c4a98b" d="M 84.5,114.5 C 88.7385,114.72 90.0718,116.72 88.5,120.5C 85.6824,120.343 83.6824,119.009 82.5,116.5C 82.8333,115.5 83.5,114.833 84.5,114.5 Z"/></g>
<g><path style="opacity:1" fill="#671f33" d="M 45.5,119.5 C 45.5,120.5 45.5,121.5 45.5,122.5C 46.791,122.263 47.791,122.596 48.5,123.5C 48.5,123.833 48.5,124.167 48.5,124.5C 43.9443,124.101 41.2776,126.101 40.5,130.5C 40.5,130.833 40.5,131.167 40.5,131.5C 39.4313,128.225 39.4313,125.225 40.5,122.5C 42.2944,121.767 43.9611,120.767 45.5,119.5 Z"/></g>
<g><path style="opacity:1" fill="#9f8458" d="M 50.5,120.5 C 51.404,121.209 51.7373,122.209 51.5,123.5C 50.5,123.5 49.5,123.5 48.5,123.5C 47.791,122.596 46.791,122.263 45.5,122.5C 45.5,121.5 45.5,120.5 45.5,119.5C 47.3569,118.235 49.0236,118.568 50.5,120.5 Z"/></g>
<g><path style="opacity:1" fill="#141313" d="M 60.5,123.5 C 63.918,124.639 67.2513,125.972 70.5,127.5C 72.6568,128.407 74.9902,129.073 77.5,129.5C 79.0326,131.245 81.0326,132.245 83.5,132.5C 83.5,133.167 83.8333,133.5 84.5,133.5C 87.4018,134.784 90.4018,135.784 93.5,136.5C 93.5,138.167 93.5,139.833 93.5,141.5C 91.7028,140.27 89.7028,139.604 87.5,139.5C 86.1516,138.399 84.6516,137.399 83,136.5C 81.8201,138.86 80.6534,141.193 79.5,143.5C 78.6365,144.463 77.9698,144.463 77.5,143.5C 79.7567,141.043 80.7567,138.376 80.5,135.5C 72.5,131.833 64.5,128.167 56.5,124.5C 55.6143,123.675 55.281,122.675 55.5,121.5C 57.5138,121.392 59.1805,122.058 60.5,123.5 Z"/></g>
<g><path style="opacity:1" fill="#9d2323" d="M 48.5,124.5 C 48.5,125.167 48.5,125.833 48.5,126.5C 46.712,126.215 45.0453,126.548 43.5,127.5C 42.8118,128.855 41.8118,129.855 40.5,130.5C 41.2776,126.101 43.9443,124.101 48.5,124.5 Z"/></g>
<g><path style="opacity:1" fill="#8e8d8d" d="M 68.5,118.5 C 70.2143,119.738 72.2143,120.405 74.5,120.5C 75.209,121.404 76.209,121.737 77.5,121.5C 77.6716,122.492 77.3382,123.158 76.5,123.5C 71.9665,121.986 67.4665,120.319 63,118.5C 61.124,119.619 60.2907,121.286 60.5,123.5C 59.1805,122.058 57.5138,121.392 55.5,121.5C 55.281,122.675 55.6143,123.675 56.5,124.5C 64.5,128.167 72.5,131.833 80.5,135.5C 80.7567,138.376 79.7567,141.043 77.5,143.5C 77.9698,144.463 78.6365,144.463 79.5,143.5C 81.6761,145.515 84.1761,147.182 87,148.5C 87.498,145.518 87.6646,142.518 87.5,139.5C 89.7028,139.604 91.7028,140.27 93.5,141.5C 93.5,143.833 93.5,146.167 93.5,148.5C 91.927,151.893 89.2604,153.226 85.5,152.5C 74.7958,147.148 64.1291,141.815 53.5,136.5C 55.0107,134.162 54.6773,133.496 52.5,134.5C 49.5926,132.685 48.2593,130.019 48.5,126.5C 48.5,125.833 48.5,125.167 48.5,124.5C 48.5,124.167 48.5,123.833 48.5,123.5C 49.5,123.5 50.5,123.5 51.5,123.5C 51.7373,122.209 51.404,121.209 50.5,120.5C 52.0503,117.471 54.5503,115.804 58,115.5C 61.5445,116.404 65.0445,117.404 68.5,118.5 Z"/></g>
<g><path style="opacity:1" fill="#b38b45" d="M 82.5,116.5 C 83.6824,119.009 85.6824,120.343 88.5,120.5C 87.1667,121.5 85.8333,122.5 84.5,123.5C 83.5,123.833 82.8333,124.5 82.5,125.5C 80.8333,126.833 79.1667,128.167 77.5,129.5C 74.9902,129.073 72.6568,128.407 70.5,127.5C 73.8784,128.109 75.8784,126.776 76.5,123.5C 77.3382,123.158 77.6716,122.492 77.5,121.5C 79.1667,120.5 80.5,119.167 81.5,117.5C 81.5,116.833 81.8333,116.5 82.5,116.5 Z"/></g>
<g><path style="opacity:1" fill="#c3c0bf" d="M 82.5,125.5 C 83.4682,127.607 83.8016,129.941 83.5,132.5C 81.0326,132.245 79.0326,131.245 77.5,129.5C 79.1667,128.167 80.8333,126.833 82.5,125.5 Z"/></g>
<g><path style="opacity:1" fill="#7e6864" d="M 84.5,123.5 C 87.2297,125.813 90.3963,127.48 94,128.5C 94.8206,135.346 94.654,142.013 93.5,148.5C 93.5,146.167 93.5,143.833 93.5,141.5C 93.5,139.833 93.5,138.167 93.5,136.5C 93.5,134.167 93.5,131.833 93.5,129.5C 91.0628,129.244 88.7294,128.577 86.5,127.5C 85.2319,129.304 84.5652,131.304 84.5,133.5C 83.8333,133.5 83.5,133.167 83.5,132.5C 83.8016,129.941 83.4682,127.607 82.5,125.5C 82.8333,124.5 83.5,123.833 84.5,123.5 Z"/></g>
<g><path style="opacity:1" fill="#ce2c18" d="M 48.5,126.5 C 48.2593,130.019 49.5926,132.685 52.5,134.5C 50.1012,137.113 48.4346,140.113 47.5,143.5C 45.6115,142.396 43.9448,141.063 42.5,139.5C 41.2504,136.994 40.5838,134.327 40.5,131.5C 40.5,131.167 40.5,130.833 40.5,130.5C 41.8118,129.855 42.8118,128.855 43.5,127.5C 45.0453,126.548 46.712,126.215 48.5,126.5 Z"/></g>
<g><path style="opacity:1" fill="#a9a9a9" d="M 93.5,136.5 C 90.4018,135.784 87.4018,134.784 84.5,133.5C 84.5652,131.304 85.2319,129.304 86.5,127.5C 88.7294,128.577 91.0628,129.244 93.5,129.5C 93.5,131.833 93.5,134.167 93.5,136.5 Z"/></g>
<g><path style="opacity:1" fill="#451222" d="M 3.5,127.5 C 2.90326,127.735 2.56993,128.235 2.5,129C 3.83545,130.674 5.16878,132.341 6.5,134C 6.27155,134.399 5.93822,134.565 5.5,134.5C 2.36802,132.797 0.701357,130.13 0.5,126.5C 1.89459,125.185 2.89459,125.519 3.5,127.5 Z"/></g>
<g><path style="opacity:1" fill="#991d1f" d="M 40.5,122.5 C 39.4313,125.225 39.4313,128.225 40.5,131.5C 40.5838,134.327 41.2504,136.994 42.5,139.5C 36.8548,136.537 35.0215,131.87 37,125.5C 38.0391,124.29 39.2058,123.29 40.5,122.5 Z"/></g>
<g><path style="opacity:1" fill="#9d2224" d="M 3.5,127.5 C 4.16667,128.167 4.83333,128.833 5.5,129.5C 12.447,136.048 20.7803,139.715 30.5,140.5C 35.1478,140.808 39.4812,142.308 43.5,145C 43.2716,145.399 42.9382,145.565 42.5,145.5C 41.8333,145.5 41.1667,145.5 40.5,145.5C 31.9429,143.79 23.2762,141.957 14.5,140C 12.1401,138.82 9.80678,137.653 7.5,136.5C 6.83333,135.833 6.16667,135.167 5.5,134.5C 5.93822,134.565 6.27155,134.399 6.5,134C 5.16878,132.341 3.83545,130.674 2.5,129C 2.56993,128.235 2.90326,127.735 3.5,127.5 Z"/></g>
<g><path style="opacity:1" fill="#969696" d="M 87.5,139.5 C 87.6646,142.518 87.498,145.518 87,148.5C 84.1761,147.182 81.6761,145.515 79.5,143.5C 80.6534,141.193 81.8201,138.86 83,136.5C 84.6516,137.399 86.1516,138.399 87.5,139.5 Z"/></g>
<g><path style="opacity:1" fill="#431915" d="M 53.5,136.5 C 51.2295,138.612 49.8961,141.279 49.5,144.5C 48.6909,146.292 48.1909,148.292 48,150.5C 47.5357,149.906 47.369,149.239 47.5,148.5C 47.5,146.833 47.5,145.167 47.5,143.5C 48.4346,140.113 50.1012,137.113 52.5,134.5C 54.6773,133.496 55.0107,134.162 53.5,136.5 Z"/></g>
<g><path style="opacity:1" fill="#bea298" d="M 40.5,145.5 C 41.1667,145.5 41.8333,145.5 42.5,145.5C 42.8417,146.338 43.5084,146.672 44.5,146.5C 43.3588,147.339 42.0255,148.006 40.5,148.5C 39.5713,149.689 39.238,151.022 39.5,152.5C 38.7519,154.735 37.9186,154.402 37,151.5C 36.5172,152.448 36.3505,153.448 36.5,154.5C 34.6208,153.659 32.6208,153.325 30.5,153.5C 30.3838,156.91 32.0504,158.244 35.5,157.5C 34.6016,158.158 33.6016,158.824 32.5,159.5C 33.0253,160.192 33.6919,160.692 34.5,161C 32.2925,162.047 30.6258,163.547 29.5,165.5C 28.9569,165.56 28.6236,165.893 28.5,166.5C 29.8333,168.167 31.1667,169.833 32.5,171.5C 35.1188,171.262 37.7855,171.595 40.5,172.5C 39.5,173.167 38.5,173.833 37.5,174.5C 31.5412,174.201 28.2079,171.201 27.5,165.5C 28.2628,163.433 29.5961,161.766 31.5,160.5C 26.7743,154.193 28.441,150.86 36.5,150.5C 36.774,148.019 38.1073,146.353 40.5,145.5 Z"/></g>
<g><path style="opacity:1" fill="#ac784c" d="M 49.5,144.5 C 49.5,145.5 49.5,146.5 49.5,147.5C 52.6049,147.599 55.2716,148.599 57.5,150.5C 55.556,151.801 53.556,152.801 51.5,153.5C 47.4338,153.693 43.4338,153.36 39.5,152.5C 39.238,151.022 39.5713,149.689 40.5,148.5C 42.0255,148.006 43.3588,147.339 44.5,146.5C 44.8333,146.5 45.1667,146.5 45.5,146.5C 45.8333,147.5 46.5,148.167 47.5,148.5C 47.369,149.239 47.5357,149.906 48,150.5C 48.1909,148.292 48.6909,146.292 49.5,144.5 Z"/></g>
<g><path style="opacity:1" fill="#c1afa6" d="M 49.5,144.5 C 59.22,144.182 61.8866,148.182 57.5,156.5C 56.3933,154.031 54.3933,153.031 51.5,153.5C 53.556,152.801 55.556,151.801 57.5,150.5C 55.2716,148.599 52.6049,147.599 49.5,147.5C 49.5,146.5 49.5,145.5 49.5,144.5 Z"/></g>
<g><path style="opacity:1" fill="#d82f18" d="M 7.5,136.5 C 9.80678,137.653 12.1401,138.82 14.5,140C 23.2762,141.957 31.9429,143.79 40.5,145.5C 38.1073,146.353 36.774,148.019 36.5,150.5C 28.441,150.86 26.7743,154.193 31.5,160.5C 29.5961,161.766 28.2628,163.433 27.5,165.5C 23.9319,165.759 22.5985,167.759 23.5,171.5C 21.619,173.828 19.2856,174.161 16.5,172.5C 14.3367,173.832 12.67,175.666 11.5,178C 9.86586,178.494 8.19919,178.66 6.5,178.5C 5.83368,171.675 5.50035,164.675 5.5,157.5C 5.50289,150.133 6.16956,143.133 7.5,136.5 Z"/></g>
<g><path style="opacity:1" fill="#d33923" d="M 36.5,154.5 C 36.7373,155.791 36.404,156.791 35.5,157.5C 32.0504,158.244 30.3838,156.91 30.5,153.5C 32.6208,153.325 34.6208,153.659 36.5,154.5 Z"/></g>
<g><path style="opacity:1" fill="#969695" d="M 51.5,153.5 C 54.3933,153.031 56.3933,154.031 57.5,156.5C 57.5,156.833 57.5,157.167 57.5,157.5C 55.8409,161.469 54.8409,165.469 54.5,169.5C 50.1667,172.167 45.8333,172.167 41.5,169.5C 40.6143,170.325 40.281,171.325 40.5,172.5C 37.7855,171.595 35.1188,171.262 32.5,171.5C 31.1667,169.833 29.8333,168.167 28.5,166.5C 28.6236,165.893 28.9569,165.56 29.5,165.5C 34.6815,165.87 39.6815,167.204 44.5,169.5C 45.1924,168.975 45.6924,168.308 46,167.5C 46.499,163.179 46.6657,158.846 46.5,154.5C 48.4147,154.784 50.0813,154.451 51.5,153.5 Z"/></g>
<g><path style="opacity:1" fill="#af2413" d="M 94.5,116.5 C 95.4971,135.993 95.8304,155.66 95.5,175.5C 95.5,176.5 95.5,177.5 95.5,178.5C 93.5,179.167 91.5,179.833 89.5,180.5C 89.5596,171.487 89.8929,162.487 90.5,153.5C 88.5853,153.784 86.9187,153.451 85.5,152.5C 89.2604,153.226 91.927,151.893 93.5,148.5C 94.654,142.013 94.8206,135.346 94,128.5C 90.3963,127.48 87.2297,125.813 84.5,123.5C 85.8333,122.5 87.1667,121.5 88.5,120.5C 90.0269,120.573 91.0269,119.906 91.5,118.5C 92.7095,118.068 93.7095,117.401 94.5,116.5 Z"/></g>
<g><path style="opacity:0.667" fill="#b65348" d="M 95.5,113.5 C 95.8333,113.5 96.1667,113.5 96.5,113.5C 96.5,134.167 96.5,154.833 96.5,175.5C 96.1667,175.5 95.8333,175.5 95.5,175.5C 95.8304,155.66 95.4971,135.993 94.5,116.5C 94.5569,115.391 94.8902,114.391 95.5,113.5 Z"/></g>
<g><path style="opacity:1" fill="#c4c1c1" d="M 39.5,152.5 C 43.4338,153.36 47.4338,153.693 51.5,153.5C 50.0813,154.451 48.4147,154.784 46.5,154.5C 46.6657,158.846 46.499,163.179 46,167.5C 45.6924,168.308 45.1924,168.975 44.5,169.5C 39.6815,167.204 34.6815,165.87 29.5,165.5C 30.6258,163.547 32.2925,162.047 34.5,161C 33.6919,160.692 33.0253,160.192 32.5,159.5C 33.6016,158.824 34.6016,158.158 35.5,157.5C 36.404,156.791 36.7373,155.791 36.5,154.5C 36.3505,153.448 36.5172,152.448 37,151.5C 37.9186,154.402 38.7519,154.735 39.5,152.5 Z"/></g>
<g><path style="opacity:1" fill="#a08c7d" d="M 60.5,159.5 C 66.9758,160.44 69.6425,163.94 68.5,170C 66.4234,171.705 64.09,172.872 61.5,173.5C 59.2362,174.219 56.9029,174.552 54.5,174.5C 52.1432,174.663 49.8098,174.497 47.5,174C 53.651,173.309 59.651,171.975 65.5,170C 67.0368,168.89 67.7035,167.39 67.5,165.5C 65.4727,165.662 63.4727,165.495 61.5,165C 60.926,163.081 60.5926,161.247 60.5,159.5 Z"/></g>
<g><path style="opacity:1" fill="#b4b2b0" d="M 57.5,157.5 C 57.8212,159.048 58.8212,159.715 60.5,159.5C 60.5926,161.247 60.926,163.081 61.5,165C 63.4727,165.495 65.4727,165.662 67.5,165.5C 67.7035,167.39 67.0368,168.89 65.5,170C 59.651,171.975 53.651,173.309 47.5,174C 49.8098,174.497 52.1432,174.663 54.5,174.5C 48.9634,175.762 43.2968,175.762 37.5,174.5C 38.5,173.833 39.5,173.167 40.5,172.5C 40.281,171.325 40.6143,170.325 41.5,169.5C 45.8333,172.167 50.1667,172.167 54.5,169.5C 54.8409,165.469 55.8409,161.469 57.5,157.5 Z"/></g>
<g><path style="opacity:1" fill="#a22010" d="M 27.5,165.5 C 28.2079,171.201 31.5412,174.201 37.5,174.5C 43.2968,175.762 48.9634,175.762 54.5,174.5C 56.9029,174.552 59.2362,174.219 61.5,173.5C 60.9717,174.721 60.305,175.887 59.5,177C 48.4973,180.158 37.8306,179.491 27.5,175C 26.2949,173.624 24.9616,172.458 23.5,171.5C 22.5985,167.759 23.9319,165.759 27.5,165.5 Z"/></g>
<g><path style="opacity:0.341" fill="#b8594a" d="M 0.5,170.5 C 1.55711,178.319 2.22377,186.319 2.5,194.5C 0.784708,186.736 0.118042,178.736 0.5,170.5 Z"/></g>
<g><path style="opacity:1" fill="#d22d18" d="M 53.5,136.5 C 64.1291,141.815 74.7958,147.148 85.5,152.5C 86.9187,153.451 88.5853,153.784 90.5,153.5C 89.8929,162.487 89.5596,171.487 89.5,180.5C 85.774,180.177 82.1073,180.511 78.5,181.5C 81.5,182.167 84.5,182.833 87.5,183.5C 86.7376,183.911 85.7376,184.077 84.5,184C 85.3079,185.706 86.6412,186.539 88.5,186.5C 88.5,189.833 88.5,193.167 88.5,196.5C 77.5,196.5 66.5,196.5 55.5,196.5C 55.5,195.5 55.5,194.5 55.5,193.5C 48.0812,193.131 40.5812,193.798 33,195.5C 28.3302,195.211 23.6635,194.878 19,194.5C 14.405,194.724 9.90502,195.391 5.5,196.5C 4.97726,191.127 4.64393,185.961 4.5,181C 5.38053,180.292 6.0472,179.458 6.5,178.5C 8.19919,178.66 9.86586,178.494 11.5,178C 12.67,175.666 14.3367,173.832 16.5,172.5C 19.2856,174.161 21.619,173.828 23.5,171.5C 24.9616,172.458 26.2949,173.624 27.5,175C 37.8306,179.491 48.4973,180.158 59.5,177C 60.305,175.887 60.9717,174.721 61.5,173.5C 64.09,172.872 66.4234,171.705 68.5,170C 69.6425,163.94 66.9758,160.44 60.5,159.5C 58.8212,159.715 57.8212,159.048 57.5,157.5C 57.5,157.167 57.5,156.833 57.5,156.5C 61.8866,148.182 59.22,144.182 49.5,144.5C 49.8961,141.279 51.2295,138.612 53.5,136.5 Z"/></g>
<g><path style="opacity:1" fill="#d35f4f" d="M 6.5,180.5 C 12.1667,180.5 17.8333,180.5 23.5,180.5C 23.5,181.833 23.5,183.167 23.5,184.5C 17.7531,184.122 12.0865,184.122 6.5,184.5C 6.5,183.167 6.5,181.833 6.5,180.5 Z"/></g>
<g><path style="opacity:1" fill="#d46a5a" d="M 56.5,181.5 C 58.5,181.5 60.5,181.5 62.5,181.5C 62.5,184.167 62.5,186.833 62.5,189.5C 60.5,189.5 58.5,189.5 56.5,189.5C 56.5,186.833 56.5,184.167 56.5,181.5 Z"/></g>
<g><path style="opacity:1" fill="#d87668" d="M 42.5,182.5 C 44.4488,183.184 46.1155,184.351 47.5,186C 45.4226,186.807 43.5893,187.974 42,189.5C 41.4436,187.115 41.6103,184.782 42.5,182.5 Z"/></g>
<g><path style="opacity:1" fill="#d36859" d="M 33.5,182.5 C 35.5273,182.338 37.5273,182.505 39.5,183C 39.3775,185.211 39.3775,187.378 39.5,189.5C 37.604,190.466 35.604,190.799 33.5,190.5C 33.5,187.833 33.5,185.167 33.5,182.5 Z"/></g>
<g><path style="opacity:1" fill="#d68074" d="M 51.5,182.5 C 55.1606,184.749 55.3272,187.083 52,189.5C 50.2326,187.836 50.7326,186.669 53.5,186C 51.0614,185.467 50.3948,184.3 51.5,182.5 Z"/></g>
<g><path style="opacity:1" fill="#e38f84" d="M 78.5,184.5 C 79.5676,183.566 80.901,183.232 82.5,183.5C 82.4959,185.842 81.6625,187.842 80,189.5C 79.7351,187.837 80.2351,186.337 81.5,185C 80.552,184.517 79.552,184.351 78.5,184.5 Z"/></g>
<g><path style="opacity:1" fill="#d26557" d="M 6.5,185.5 C 8.71843,186.598 10.8851,186.598 13,185.5C 14.298,186.56 15.4647,187.726 16.5,189C 16.3333,189.5 16.1667,190 16,190.5C 13.5215,189.553 11.1882,189.553 9,190.5C 7.10793,189.383 6.27459,187.716 6.5,185.5 Z"/></g>
<g><path style="opacity:1" fill="#b72a17" d="M -0.5,123.5 C 0.403972,124.209 0.737305,125.209 0.5,126.5C 0.701357,130.13 2.36802,132.797 5.5,134.5C 6.16667,135.167 6.83333,135.833 7.5,136.5C 6.16956,143.133 5.50289,150.133 5.5,157.5C 5.50035,164.675 5.83368,171.675 6.5,178.5C 6.0472,179.458 5.38053,180.292 4.5,181C 4.64393,185.961 4.97726,191.127 5.5,196.5C 9.90502,195.391 14.405,194.724 19,194.5C 23.6635,194.878 28.3302,195.211 33,195.5C 40.5812,193.798 48.0812,193.131 55.5,193.5C 55.5,194.5 55.5,195.5 55.5,196.5C 66.5,196.5 77.5,196.5 88.5,196.5C 88.5,193.167 88.5,189.833 88.5,186.5C 89.9034,189.909 90.5701,193.575 90.5,197.5C 62.1667,197.5 33.8333,197.5 5.5,197.5C 3.5,197.5 2.5,196.5 2.5,194.5C 2.22377,186.319 1.55711,178.319 0.5,170.5C 0.814971,166.629 0.481638,162.962 -0.5,159.5C -0.5,147.5 -0.5,135.5 -0.5,123.5 Z"/></g>
<g><path style="opacity:0.831" fill="#b23826" d="M 95.5,178.5 C 94.9989,185.346 93.6655,192.013 91.5,198.5C 62.8333,198.5 34.1667,198.5 5.5,198.5C 5.5,198.167 5.5,197.833 5.5,197.5C 33.8333,197.5 62.1667,197.5 90.5,197.5C 90.5701,193.575 89.9034,189.909 88.5,186.5C 86.6412,186.539 85.3079,185.706 84.5,184C 85.7376,184.077 86.7376,183.911 87.5,183.5C 84.5,182.833 81.5,182.167 78.5,181.5C 82.1073,180.511 85.774,180.177 89.5,180.5C 91.5,179.833 93.5,179.167 95.5,178.5 Z"/></g>
</svg>
